<svg xmlns="http://www.w3.org/2000/svg" version="1.1" xmlns:xlink="http://www.w3.org/1999/xlink" xml:space="preserve" color="black" width="9.22in" height="1.23in" viewBox="0 0 664 88">
<title>abc2svg - 6. Train Beat</title><style type="text/css">
.fill {fill: currentColor}
.stroke {stroke: currentColor; fill: none; stroke-width: .7}
.f1_1 {font:20px calibri}
.f2_1 {font:italic 14px serif}
.f3_1 {font:16px calibri}
</style><defs>
<path id="pclef" class="stroke" style="stroke-width:1.4" d="m-4 10h5.4v-20h-5.4v20"></path>
<ellipse id="hd" rx="4.1" ry="2.9" transform="rotate(-20)" class="fill"></ellipse>
<path id="Xhead" d="m-3,-3 l6,6 m0,-6 l-6,6" class="stroke" style="stroke-width:1.2"></path>
<g id="accent" class="stroke">
	<path d="m-4 0l8 -2l-8 -2" style="stroke-width:1.2"></path>
</g>
</defs><g transform="scale(0.75)"><text class="f1_1" x="442.67" y="31.67" text-anchor="middle">Train Beat</text>
<path class="stroke" d="m885.33 94.71v-24.00"></path>
<path class="stroke" d="m882.33 94.71v-24.00"></path>
<path class="stroke" d="m0.00 94.71
h885.33m-885.33 -6h885.33m-885.33 -6h885.33m-885.33 -6h885.33m-885.33 -6h885.33"></path>
<use x="12.00" y="82.71" xlink:href="#pclef"></use>
<g style="font:bold 16px serif" transform="translate(30.50,94.71) scale(1.2,1)">
	<text y="-12" text-anchor="middle">4</text>
	<text text-anchor="middle">4</text>
</g>
<path class="fill" d="m51.66 57.51
l155.44 0.00v3.20l-155.44 0.00"></path>
<path class="fill" d="m52.00 62.51
l154.76 0.00v3.20l-154.76 0.00"></path>
<path class="stroke" d="m52.00 91.71v-33.20"></path>
<use x="48.50" y="91.71" xlink:href="#hd"></use>
<text style="font:14px serif" x="40.50" y="82.71">(</text>
<text style="font:14px serif" x="52.50" y="82.71">)</text>
<use x="48.50" y="79.71" xlink:href="#hd"></use>
<rect style="fill: transparent;" class="abcr" id="abcNoteNum_1_0" x="42.00" y="61.71" width="13.00" height="42.00"></rect>
<path class="stroke" d="m103.59 79.71v-21.20"></path>
<use x="100.09" y="79.71" xlink:href="#hd"></use>
<rect style="fill: transparent;" class="abcr" id="abcNoteNum_1_1" x="93.59" y="61.71" width="13.00" height="42.00"></rect>
<path class="stroke" d="m155.17 97.71v-39.20"></path>
<use x="151.67" y="97.71" xlink:href="#Xhead"></use>
<use x="151.67" y="79.71" xlink:href="#hd"></use>
<rect style="fill: transparent;" class="abcr" id="abcNoteNum_1_2" x="145.17" y="61.71" width="13.00" height="42.00"></rect>
<path class="stroke" d="m206.76 79.71v-21.20"></path>
<use x="203.26" y="79.71" xlink:href="#hd"></use>
<rect style="fill: transparent;" class="abcr" id="abcNoteNum_1_3" x="196.76" y="61.71" width="13.00" height="42.00"></rect>
<path class="fill" d="m263.73 57.51
l155.44 0.00v3.20l-155.44 0.00"></path>
<path class="fill" d="m264.07 62.51
l154.76 0.00v3.20l-154.76 0.00"></path>
<path class="stroke" d="m264.07 91.71v-33.20"></path>
<use x="260.57" y="91.71" xlink:href="#hd"></use>
<text style="font:14px serif" x="252.57" y="82.71">(</text>
<text style="font:14px serif" x="264.57" y="82.71">)</text>
<use x="260.57" y="79.71" xlink:href="#hd"></use>
<rect style="fill: transparent;" class="abcr" id="abcNoteNum_1_4" x="254.07" y="61.71" width="13.00" height="42.00"></rect>
<path class="stroke" d="m315.66 79.71v-21.20"></path>
<use x="312.16" y="79.71" xlink:href="#hd"></use>
<rect style="fill: transparent;" class="abcr" id="abcNoteNum_1_5" x="305.66" y="61.71" width="13.00" height="42.00"></rect>
<path class="stroke" d="m367.25 97.71v-39.20"></path>
<use x="363.75" y="97.71" xlink:href="#Xhead"></use>
<use x="363.75" y="79.71" xlink:href="#hd"></use>
<rect style="fill: transparent;" class="abcr" id="abcNoteNum_1_6" x="357.25" y="61.71" width="13.00" height="42.00"></rect>
<path class="stroke" d="m418.83 79.71v-21.20"></path>
<use x="415.33" y="79.71" xlink:href="#hd"></use>
<rect style="fill: transparent;" class="abcr" id="abcNoteNum_1_7" x="408.83" y="61.71" width="13.00" height="42.00"></rect>
<path class="fill" d="m475.81 57.51
l155.44 0.00v3.20l-155.44 0.00"></path>
<path class="fill" d="m476.15 62.51
l154.76 0.00v3.20l-154.76 0.00"></path>
<path class="stroke" d="m476.15 91.71v-33.20"></path>
<use x="472.65" y="91.71" xlink:href="#hd"></use>
<text style="font:14px serif" x="464.65" y="82.71">(</text>
<text style="font:14px serif" x="476.65" y="82.71">)</text>
<use x="472.65" y="79.71" xlink:href="#hd"></use>
<rect style="fill: transparent;" class="abcr" id="abcNoteNum_1_8" x="466.15" y="61.71" width="13.00" height="42.00"></rect>
<path class="stroke" d="m527.73 79.71v-21.20"></path>
<use x="524.23" y="79.71" xlink:href="#hd"></use>
<rect style="fill: transparent;" class="abcr" id="abcNoteNum_1_9" x="517.73" y="61.71" width="13.00" height="42.00"></rect>
<path class="stroke" d="m579.32 97.71v-39.20"></path>
<use x="575.82" y="97.71" xlink:href="#Xhead"></use>
<use x="575.82" y="79.71" xlink:href="#hd"></use>
<rect style="fill: transparent;" class="abcr" id="abcNoteNum_1_10" x="569.32" y="61.71" width="13.00" height="42.00"></rect>
<path class="stroke" d="m630.91 79.71v-21.20"></path>
<use x="627.41" y="79.71" xlink:href="#hd"></use>
<rect style="fill: transparent;" class="abcr" id="abcNoteNum_1_11" x="620.91" y="61.71" width="13.00" height="42.00"></rect>
<path class="fill" d="m687.88 57.51
l155.44 0.00v3.20l-155.44 0.00"></path>
<path class="fill" d="m688.22 62.51
l154.76 0.00v3.20l-154.76 0.00"></path>
<path class="stroke" d="m688.22 91.71v-33.20"></path>
<use x="684.72" y="91.71" xlink:href="#hd"></use>
<text style="font:14px serif" x="676.72" y="82.71">(</text>
<text style="font:14px serif" x="688.72" y="82.71">)</text>
<use x="684.72" y="79.71" xlink:href="#hd"></use>
<rect style="fill: transparent;" class="abcr" id="abcNoteNum_1_12" x="678.22" y="61.71" width="13.00" height="42.00"></rect>
<path class="stroke" d="m739.81 79.71v-21.20"></path>
<use x="736.31" y="79.71" xlink:href="#hd"></use>
<rect style="fill: transparent;" class="abcr" id="abcNoteNum_1_13" x="729.81" y="61.71" width="13.00" height="42.00"></rect>
<path class="stroke" d="m791.39 97.71v-39.20"></path>
<use x="787.89" y="97.71" xlink:href="#Xhead"></use>
<use x="787.89" y="79.71" xlink:href="#hd"></use>
<rect style="fill: transparent;" class="abcr" id="abcNoteNum_1_14" x="781.39" y="61.71" width="13.00" height="42.00"></rect>
<path class="stroke" d="m842.98 79.71v-21.20"></path>
<use x="839.48" y="79.71" xlink:href="#hd"></use>
<rect style="fill: transparent;" class="abcr" id="abcNoteNum_1_15" x="832.98" y="61.71" width="13.00" height="42.00"></rect>
<text style="font:14px serif" x="92.09" y="81.71">(</text>
<text style="font:14px serif" x="104.09" y="81.71">)</text>
<use x="151.67" y="53.01" xlink:href="#accent"></use>
<text style="font:14px serif" x="195.26" y="81.71">(</text>
<text style="font:14px serif" x="207.26" y="81.71">)</text>
<text style="font:14px serif" x="304.16" y="81.71">(</text>
<text style="font:14px serif" x="316.16" y="81.71">)</text>
<use x="363.75" y="53.01" xlink:href="#accent"></use>
<text style="font:14px serif" x="407.33" y="81.71">(</text>
<text style="font:14px serif" x="419.33" y="81.71">)</text>
<text style="font:14px serif" x="516.23" y="81.71">(</text>
<text style="font:14px serif" x="528.23" y="81.71">)</text>
<use x="575.82" y="53.01" xlink:href="#accent"></use>
<text style="font:14px serif" x="619.41" y="81.71">(</text>
<text style="font:14px serif" x="631.41" y="81.71">)</text>
<use x="736.31" y="53.01" xlink:href="#accent"></use>
<use x="787.89" y="53.01" xlink:href="#accent"></use>
<text style="font:14px serif" x="831.48" y="81.71">(</text>
<text style="font:14px serif" x="843.48" y="81.71">)</text>
</g></svg>