<svg xmlns="http://www.w3.org/2000/svg" version="1.1" xmlns:xlink="http://www.w3.org/1999/xlink" xml:space="preserve" color="black" width="9.83in" height="1.22in" viewBox="0 0 708 88">
<title>abc2svg - 6. Tumbao Ostinato</title><style type="text/css">
.fill {fill: currentColor}
.stroke {stroke: currentColor; fill: none; stroke-width: .7}
.f1_1 {font:20px calibri}
.f2_1 {font:italic 14px serif}
</style><defs>
<path id="pclef" class="stroke" style="stroke-width:1.4" d="m-4 10h5.4v-20h-5.4v20"></path>
<path id="Xhead" d="m-3,-3 l6,6 m0,-6 l-6,6" class="stroke" style="stroke-width:1.2"></path>
<ellipse id="hd" rx="4.1" ry="2.9" transform="rotate(-20)" class="fill"></ellipse>
</defs><g transform="scale(0.75)"><text class="f1_1" x="472.00" y="31.67" text-anchor="middle">Tumbao Ostinato</text>
<path class="stroke" d="m944.00 94.01v-24.00"></path>
<path class="stroke" d="m941.00 94.01v-24.00"></path>
<path class="stroke" d="m0.00 94.01
h944.00m-944.00 -6h944.00m-944.00 -6h944.00m-944.00 -6h944.00m-944.00 -6h944.00"></path>
<use x="12.00" y="82.01" xlink:href="#pclef"></use>
<g style="font:bold 16px serif" transform="translate(30.50,94.01) scale(1.2,1)">
	<text y="-12" text-anchor="middle">4</text>
	<text text-anchor="middle">4</text>
</g>
<path class="fill" d="m51.66 68.06
l130.54 0.00v3.20l-130.54 0.00"></path>
<path class="fill" d="m175.86 73.06
l6.00 0.00v3.20l-6.00 0.00"></path>
<path class="stroke" d="m52.00 97.01v-27.95"></path>
<use x="48.50" y="97.01" xlink:href="#Xhead"></use>
<circle class="fill" cx="56.20" cy="97.01" r="1.2"></circle>
<rect style="fill: transparent;" class="abcr" id="abcNoteNum_1_0" x="42.00" y="61.01" width="20.50" height="42.00"></rect>
<path class="stroke" d="m181.86 91.01v-21.95"></path>
<use x="178.36" y="91.01" xlink:href="#hd"></use>
<rect style="fill: transparent;" class="abcr" id="abcNoteNum_1_1" x="171.86" y="61.01" width="13.00" height="42.00"></rect>
<path class="fill" d="m271.14 73.06
l114.81 0.00v3.20l-114.81 0.00"></path>
<path class="stroke" d="m271.48 97.01v-22.95"></path>
<use x="267.98" y="97.01" xlink:href="#Xhead"></use>
<rect style="fill: transparent;" class="abcr" id="abcNoteNum_1_2" x="261.48" y="61.01" width="13.00" height="42.00"></rect>
<path class="stroke" d="m385.62 91.01v-16.95"></path>
<use x="382.12" y="91.01" xlink:href="#hd"></use>
<rect style="fill: transparent;" class="abcr" id="abcNoteNum_1_3" x="375.62" y="61.01" width="13.00" height="42.00"></rect>
<path class="fill" d="m512.09 68.06
l130.54 0.00v3.20l-130.54 0.00"></path>
<path class="fill" d="m636.29 73.06
l6.00 0.00v3.20l-6.00 0.00"></path>
<path class="stroke" d="m512.43 97.01v-27.95"></path>
<use x="508.93" y="97.01" xlink:href="#Xhead"></use>
<circle class="fill" cx="516.63" cy="97.01" r="1.2"></circle>
<rect style="fill: transparent;" class="abcr" id="abcNoteNum_1_4" x="502.43" y="61.01" width="20.50" height="42.00"></rect>
<path class="stroke" d="m642.29 91.01v-21.95"></path>
<use x="638.79" y="91.01" xlink:href="#hd"></use>
<rect style="fill: transparent;" class="abcr" id="abcNoteNum_1_5" x="632.29" y="61.01" width="13.00" height="42.00"></rect>
<path class="fill" d="m731.58 73.06
l114.81 0.00v3.20l-114.81 0.00"></path>
<path class="stroke" d="m731.92 97.01v-22.95"></path>
<use x="728.42" y="97.01" xlink:href="#Xhead"></use>
<rect style="fill: transparent;" class="abcr" id="abcNoteNum_1_6" x="721.92" y="61.01" width="13.00" height="42.00"></rect>
<path class="stroke" d="m846.05 91.01v-16.95"></path>
<use x="842.55" y="91.01" xlink:href="#hd"></use>
<rect style="fill: transparent;" class="abcr" id="abcNoteNum_1_7" x="836.05" y="61.01" width="13.00" height="42.00"></rect>
</g></svg>