<svg xmlns="http://www.w3.org/2000/svg" version="1.1" xmlns:xlink="http://www.w3.org/1999/xlink" xml:space="preserve" color="black" width="9.83in" height="1.17in" viewBox="0 0 708 84">
<title>abc2svg - 6.</title><style type="text/css">
.fill {fill: currentColor}
.stroke {stroke: currentColor; fill: none; stroke-width: .7}
.f1_1 {font:italic 14px serif}
.f2_1 {font:16px calibri}
</style><defs>
<path id="pclef" class="stroke" style="stroke-width:1.4" d="m-4 10h5.4v-20h-5.4v20"></path>
<ellipse id="hd" rx="4.1" ry="2.9" transform="rotate(-20)" class="fill"></ellipse>
<path id="Xhead" d="m-3,-3 l6,6 m0,-6 l-6,6" class="stroke" style="stroke-width:1.2"></path>
<use id="ghd" transform="translate(4.5,0) scale(0.5)" xlink:href="#hd"></use>
<g id="accent" class="stroke">
	<path d="m-4 0l8 -2l-8 -2" style="stroke-width:1.2"></path>
</g>
</defs><g transform="scale(0.75)"><path class="stroke" d="m944.00 89.04v-24.00"></path>
<path class="stroke" d="m941.00 89.04v-24.00"></path>
<path class="stroke" d="m0.00 89.04
h944.00m-944.00 -6h944.00m-944.00 -6h944.00m-944.00 -6h944.00m-944.00 -6h944.00"></path>
<use x="12.00" y="77.04" xlink:href="#pclef"></use>
<g style="font:bold 16px serif" transform="translate(30.50,89.04) scale(1.2,1)">
	<text y="-12" text-anchor="middle">4</text>
	<text text-anchor="middle">4</text>
</g>
<path class="fill" d="m51.66 31.84
l176.15 0.00v3.20l-176.15 0.00"></path>
<path class="fill" d="m52.00 36.84
l175.47 0.00v3.20l-175.47 0.00"></path>
<path class="fill" d="m47.00 44.34
l10.00 0.00v3.20l-10.00 0.00"></path>
<path class="fill" d="m101.46 44.34
l10.00 0.00v3.20l-10.00 0.00"></path>
<path class="fill" d="m47.00 49.34
l10.00 0.00v3.20l-10.00 0.00"></path>
<path class="fill" d="m101.46 49.34
l10.00 0.00v3.20l-10.00 0.00"></path>
<path class="fill" d="m47.00 54.34
l10.00 0.00v3.20l-10.00 0.00"></path>
<path class="fill" d="m101.46 54.34
l10.00 0.00v3.20l-10.00 0.00"></path>
<path class="stroke" d="m52.00 86.04v-53.20"></path>
<use x="48.50" y="86.04" xlink:href="#hd"></use>
<use x="48.50" y="74.04" xlink:href="#hd"></use>
<use x="48.50" y="62.04" xlink:href="#Xhead"></use>
<rect style="fill: transparent;" class="abcr" id="abcNoteNum_1_0" x="42.00" y="56.04" width="13.00" height="42.00"></rect>
<path class="stroke" d="m106.46 74.04v-41.20"></path>
<use x="102.96" y="74.04" xlink:href="#hd"></use>
<use x="102.96" y="62.04" xlink:href="#Xhead"></use>
<rect style="fill: transparent;" class="abcr" id="abcNoteNum_1_1" x="96.46" y="56.04" width="13.00" height="42.00"></rect>
<path class="fill" d="m144.77 54.04
l8.58 0.00v1.60l-8.58 0.00"></path>
<path class="fill" d="m145.06 57.04
l8.00 0.00v1.60l-8.00 0.00"></path>
<path class="stroke" d="m145.06 74.04v-19.00"></path>
<use x="138.96" y="74.04" xlink:href="#ghd"></use>
<path class="stroke" d="m142.46 70.04l8.00 -19.00"></path>
<rect style="fill: transparent;" class="abcr" id="abcNoteNum_1_2" x="129.96" y="56.04" width="30.50" height="42.00"></rect>
<path class="stroke" d="m153.06 74.04v-19.00"></path>
<use x="146.96" y="74.04" xlink:href="#ghd"></use>
<rect style="fill: transparent;" class="abcr" id="abcNoteNum_1_2" x="129.96" y="56.04" width="30.50" height="42.00"></rect>
<path class="stroke" d="m143.46 79.04
c3.80 3.00 15.20 3.00 19.00 0.00"></path>
<path class="stroke" d="m166.96 74.04v-41.20"></path>
<use x="163.46" y="74.04" xlink:href="#hd"></use>
<use x="163.46" y="62.04" xlink:href="#Xhead"></use>
<rect style="fill: transparent;" class="abcr" id="abcNoteNum_1_2" x="161.46" y="56.04" width="8.50" height="42.00"></rect>
<path class="stroke" d="m213.57 74.04v-14.00"></path>
<path class="fill" d="M213.57 60.04c0.6 3.4 5.6 3.8 3 10
	c1.2 -4.4 -1.4 -7 -3 -7
"></path>
<use x="207.47" y="74.04" xlink:href="#ghd"></use>
<path class="stroke" d="m210.97 70.04l9.00 -5.00"></path>
<rect style="fill: transparent;" class="abcr" id="abcNoteNum_1_3" x="198.47" y="56.04" width="22.50" height="42.00"></rect>
<path class="stroke" d="m211.97 79.04
c2.20 3.00 8.80 3.00 11.00 0.00"></path>
<path class="stroke" d="m227.47 74.04v-41.20"></path>
<use x="223.97" y="74.04" xlink:href="#hd"></use>
<use x="223.97" y="62.04" xlink:href="#Xhead"></use>
<rect style="fill: transparent;" class="abcr" id="abcNoteNum_1_3" x="221.97" y="56.04" width="8.50" height="42.00"></rect>
<path class="fill" d="m287.64 45.84
l164.05 0.00v3.20l-164.05 0.00"></path>
<path class="fill" d="m287.98 50.84
l163.37 0.00v3.20l-163.37 0.00"></path>
<path class="stroke" d="m287.98 74.04v-27.20"></path>
<text style="font:14px serif" x="276.48" y="77.04">(</text>
<text style="font:14px serif" x="288.48" y="77.04">)</text>
<use x="284.48" y="74.04" xlink:href="#hd"></use>
<use x="284.48" y="62.04" xlink:href="#Xhead"></use>
<rect style="fill: transparent;" class="abcr" id="abcNoteNum_1_4" x="277.98" y="56.04" width="13.00" height="42.00"></rect>
<path class="stroke" d="m342.43 74.04v-27.20"></path>
<use x="338.93" y="74.04" xlink:href="#hd"></use>
<use x="338.93" y="62.04" xlink:href="#Xhead"></use>
<rect style="fill: transparent;" class="abcr" id="abcNoteNum_1_5" x="332.43" y="56.04" width="13.00" height="42.00"></rect>
<path class="stroke" d="m396.89 74.04v-27.20"></path>
<use x="393.39" y="74.04" xlink:href="#hd"></use>
<use x="393.39" y="62.04" xlink:href="#Xhead"></use>
<rect style="fill: transparent;" class="abcr" id="abcNoteNum_1_6" x="386.89" y="56.04" width="13.00" height="42.00"></rect>
<path class="stroke" d="m451.34 74.04v-27.20"></path>
<use x="447.84" y="74.04" xlink:href="#Xhead"></use>
<use x="447.84" y="62.04" xlink:href="#Xhead"></use>
<rect style="fill: transparent;" class="abcr" id="abcNoteNum_1_7" x="441.34" y="56.04" width="13.00" height="42.00"></rect>
<path class="fill" d="m511.51 41.84
l164.05 0.00v3.20l-164.05 0.00"></path>
<path class="fill" d="m511.85 46.84
l163.37 0.00v3.20l-163.37 0.00"></path>
<path class="stroke" d="m511.85 86.04v-43.20"></path>
<use x="508.35" y="86.04" xlink:href="#hd"></use>
<use x="508.35" y="62.04" xlink:href="#Xhead"></use>
<rect style="fill: transparent;" class="abcr" id="abcNoteNum_1_8" x="501.85" y="56.04" width="13.00" height="42.00"></rect>
<path class="stroke" d="m566.31 62.04v-19.20"></path>
<use x="562.81" y="62.04" xlink:href="#Xhead"></use>
<rect style="fill: transparent;" class="abcr" id="abcNoteNum_1_9" x="556.31" y="56.04" width="13.00" height="42.00"></rect>
<path class="stroke" d="m620.76 62.04v-19.20"></path>
<use x="617.26" y="62.04" xlink:href="#Xhead"></use>
<rect style="fill: transparent;" class="abcr" id="abcNoteNum_1_10" x="610.76" y="56.04" width="13.00" height="42.00"></rect>
<path class="stroke" d="m675.22 62.04v-19.20"></path>
<use x="671.72" y="62.04" xlink:href="#Xhead"></use>
<rect style="fill: transparent;" class="abcr" id="abcNoteNum_1_11" x="665.22" y="56.04" width="13.00" height="42.00"></rect>
<path class="fill" d="m735.39 41.84
l164.05 0.00v3.20l-164.05 0.00"></path>
<path class="fill" d="m735.73 46.84
l163.37 0.00v3.20l-163.37 0.00"></path>
<path class="stroke" d="m735.73 62.04v-19.20"></path>
<use x="732.23" y="62.04" xlink:href="#Xhead"></use>
<rect style="fill: transparent;" class="abcr" id="abcNoteNum_1_12" x="725.73" y="56.04" width="13.00" height="42.00"></rect>
<path class="stroke" d="m790.18 62.04v-19.20"></path>
<use x="786.68" y="62.04" xlink:href="#Xhead"></use>
<rect style="fill: transparent;" class="abcr" id="abcNoteNum_1_13" x="780.18" y="56.04" width="13.00" height="42.00"></rect>
<path class="stroke" d="m844.64 62.04v-19.20"></path>
<use x="841.14" y="62.04" xlink:href="#Xhead"></use>
<rect style="fill: transparent;" class="abcr" id="abcNoteNum_1_14" x="834.64" y="56.04" width="13.00" height="42.00"></rect>
<path class="stroke" d="m899.09 62.04v-19.20"></path>
<use x="895.59" y="62.04" xlink:href="#Xhead"></use>
<rect style="fill: transparent;" class="abcr" id="abcNoteNum_1_15" x="889.09" y="56.04" width="13.00" height="42.00"></rect>
<use x="223.97" y="27.34" xlink:href="#accent"></use>
<use x="338.93" y="41.34" xlink:href="#accent"></use>
</g></svg>