<svg xmlns="http://www.w3.org/2000/svg" version="1.1" xmlns:xlink="http://www.w3.org/1999/xlink" xml:space="preserve" color="black" width="9.83in" height="1.06in" viewBox="0 0 708 77">
<title>abc2svg - 6.</title><style type="text/css">
.fill {fill: currentColor}
.stroke {stroke: currentColor; fill: none; stroke-width: .7}
.f1_1 {font:italic 14px serif}
</style><defs>
<path id="pclef" class="stroke" style="stroke-width:1.4" d="m-4 10h5.4v-20h-5.4v20"></path>
<ellipse id="hd" rx="4.1" ry="2.9" transform="rotate(-20)" class="fill"></ellipse>
<path id="Xhead" d="m-3,-3 l6,6 m0,-6 l-6,6" class="stroke" style="stroke-width:1.2"></path>
<g id="accent" class="stroke">
	<path d="m-4 0l8 -2l-8 -2" style="stroke-width:1.2"></path>
</g>
</defs><g transform="scale(0.75)"><path class="stroke" d="m944.00 79.04v-24.00"></path>
<path class="stroke" d="m941.00 79.04v-24.00"></path>
<path class="stroke" d="m0.00 79.04
h944.00m-944.00 -6h944.00m-944.00 -6h944.00m-944.00 -6h944.00m-944.00 -6h944.00"></path>
<use x="12.00" y="67.04" xlink:href="#pclef"></use>
<g style="font:bold 16px serif" transform="translate(30.50,79.04) scale(1.2,1)">
	<text y="-12" text-anchor="middle">4</text>
	<text text-anchor="middle">4</text>
</g>
<path class="fill" d="m51.66 31.84
l166.29 0.00v3.20l-166.29 0.00"></path>
<path class="fill" d="m52.00 36.84
l165.61 0.00v3.20l-165.61 0.00"></path>
<path class="stroke" d="m52.00 76.04v-43.20"></path>
<use x="48.50" y="76.04" xlink:href="#hd"></use>
<use x="48.50" y="52.04" xlink:href="#Xhead"></use>
<rect style="fill: transparent;" class="abcr" id="abcNoteNum_1_0" x="42.00" y="46.04" width="13.00" height="42.00"></rect>
<path class="stroke" d="m107.20 82.04v-49.20"></path>
<use x="103.70" y="82.04" xlink:href="#Xhead"></use>
<use x="103.70" y="52.04" xlink:href="#Xhead"></use>
<rect style="fill: transparent;" class="abcr" id="abcNoteNum_1_1" x="97.20" y="46.04" width="13.00" height="42.00"></rect>
<path class="stroke" d="m162.40 82.04v-49.20"></path>
<use x="158.90" y="82.04" xlink:href="#Xhead"></use>
<use x="158.90" y="76.04" xlink:href="#hd"></use>
<use x="158.90" y="52.04" xlink:href="#Xhead"></use>
<rect style="fill: transparent;" class="abcr" id="abcNoteNum_1_2" x="152.40" y="46.04" width="13.00" height="42.00"></rect>
<path class="stroke" d="m217.61 52.04v-19.20"></path>
<use x="214.11" y="52.04" xlink:href="#Xhead"></use>
<rect style="fill: transparent;" class="abcr" id="abcNoteNum_1_3" x="207.61" y="46.04" width="13.00" height="42.00"></rect>
<path class="fill" d="m278.60 31.84
l166.29 0.00v3.20l-166.29 0.00"></path>
<path class="fill" d="m278.94 36.84
l165.61 0.00v3.20l-165.61 0.00"></path>
<path class="stroke" d="m278.94 64.04v-31.20"></path>
<use x="275.44" y="64.04" xlink:href="#hd"></use>
<use x="275.44" y="52.04" xlink:href="#Xhead"></use>
<rect style="fill: transparent;" class="abcr" id="abcNoteNum_1_4" x="268.94" y="46.04" width="13.00" height="42.00"></rect>
<path class="stroke" d="m334.14 52.04v-19.20"></path>
<use x="330.64" y="52.04" xlink:href="#Xhead"></use>
<rect style="fill: transparent;" class="abcr" id="abcNoteNum_1_5" x="324.14" y="46.04" width="13.00" height="42.00"></rect>
<path class="stroke" d="m389.35 52.04v-19.20"></path>
<use x="385.85" y="52.04" xlink:href="#Xhead"></use>
<rect style="fill: transparent;" class="abcr" id="abcNoteNum_1_6" x="379.35" y="46.04" width="13.00" height="42.00"></rect>
<path class="stroke" d="m444.55 52.04v-19.20"></path>
<use x="441.05" y="52.04" xlink:href="#Xhead"></use>
<rect style="fill: transparent;" class="abcr" id="abcNoteNum_1_7" x="434.55" y="46.04" width="13.00" height="42.00"></rect>
<path class="fill" d="m505.54 31.84
l166.29 0.00v3.20l-166.29 0.00"></path>
<path class="fill" d="m505.88 36.84
l165.61 0.00v3.20l-165.61 0.00"></path>
<path class="stroke" d="m505.88 52.04v-19.20"></path>
<use x="502.38" y="52.04" xlink:href="#Xhead"></use>
<rect style="fill: transparent;" class="abcr" id="abcNoteNum_1_8" x="495.88" y="46.04" width="13.00" height="42.00"></rect>
<path class="stroke" d="m561.09 52.04v-19.20"></path>
<use x="557.59" y="52.04" xlink:href="#Xhead"></use>
<rect style="fill: transparent;" class="abcr" id="abcNoteNum_1_9" x="551.09" y="46.04" width="13.00" height="42.00"></rect>
<path class="stroke" d="m616.29 52.04v-19.20"></path>
<use x="612.79" y="52.04" xlink:href="#Xhead"></use>
<rect style="fill: transparent;" class="abcr" id="abcNoteNum_1_10" x="606.29" y="46.04" width="13.00" height="42.00"></rect>
<path class="stroke" d="m671.49 52.04v-19.20"></path>
<use x="667.99" y="52.04" xlink:href="#Xhead"></use>
<rect style="fill: transparent;" class="abcr" id="abcNoteNum_1_11" x="661.49" y="46.04" width="13.00" height="42.00"></rect>
<path class="fill" d="m732.49 31.84
l166.29 0.00v3.20l-166.29 0.00"></path>
<path class="fill" d="m732.83 36.84
l165.61 0.00v3.20l-165.61 0.00"></path>
<path class="stroke" d="m732.83 64.04v-31.20"></path>
<use x="729.33" y="64.04" xlink:href="#hd"></use>
<use x="729.33" y="52.04" xlink:href="#Xhead"></use>
<rect style="fill: transparent;" class="abcr" id="abcNoteNum_1_12" x="722.83" y="46.04" width="13.00" height="42.00"></rect>
<path class="stroke" d="m788.03 52.04v-19.20"></path>
<use x="784.53" y="52.04" xlink:href="#Xhead"></use>
<rect style="fill: transparent;" class="abcr" id="abcNoteNum_1_13" x="778.03" y="46.04" width="13.00" height="42.00"></rect>
<path class="stroke" d="m843.23 52.04v-19.20"></path>
<use x="839.73" y="52.04" xlink:href="#Xhead"></use>
<rect style="fill: transparent;" class="abcr" id="abcNoteNum_1_14" x="833.23" y="46.04" width="13.00" height="42.00"></rect>
<path class="stroke" d="m898.43 52.04v-19.20"></path>
<use x="894.93" y="52.04" xlink:href="#Xhead"></use>
<rect style="fill: transparent;" class="abcr" id="abcNoteNum_1_15" x="888.43" y="46.04" width="13.00" height="42.00"></rect>
<use x="275.44" y="27.34" xlink:href="#accent"></use>
<use x="729.33" y="27.34" xlink:href="#accent"></use>
</g></svg>