<svg xmlns="http://www.w3.org/2000/svg" version="1.1" xmlns:xlink="http://www.w3.org/1999/xlink" xml:space="preserve" color="black" width="9.22in" height="1.09in" viewBox="0 0 664 79">
<title>abc2svg - 6.</title><style type="text/css">
.fill {fill: currentColor}
.stroke {stroke: currentColor; fill: none; stroke-width: .7}
.f1_1 {font:italic 14px serif}
</style><defs>
<path id="pclef" class="stroke" style="stroke-width:1.4" d="m-4 10h5.4v-20h-5.4v20"></path>
<ellipse id="hd" rx="4.1" ry="2.9" transform="rotate(-20)" class="fill"></ellipse>
<path id="Xhead" d="m-3,-3 l6,6 m0,-6 l-6,6" class="stroke" style="stroke-width:1.2"></path>
<g id="accent" class="stroke">
	<path d="m-4 0l8 -2l-8 -2" style="stroke-width:1.2"></path>
</g>
</defs><g transform="scale(0.75)"><g transform="translate(0,60.70)">
<text style="font:italic 12px serif" x="120.39" y="-29.36" text-anchor="middle">3</text>
"<text style="font:italic 12px serif" x="331.55" y="-29.36" text-anchor="middle">3</text>
"<text style="font:italic 12px serif" x="542.71" y="-29.36" text-anchor="middle">3</text>
"<text style="font:italic 12px serif" x="753.88" y="-29.36" text-anchor="middle">3</text>
"</g>
<path class="stroke" d="m885.33 82.04v-24.00"></path>
<path class="stroke" d="m882.33 82.04v-24.00"></path>
<path class="stroke" d="m0.00 82.04
h885.33m-885.33 -6h885.33m-885.33 -6h885.33m-885.33 -6h885.33m-885.33 -6h885.33"></path>
<use x="12.00" y="70.04" xlink:href="#pclef"></use>
<g style="font:bold 16px serif" transform="translate(30.50,82.04) scale(1.2,1)">
	<text y="-12" text-anchor="middle">4</text>
	<text text-anchor="middle">4</text>
</g>
<path class="fill" d="m51.66 37.84
l141.46 0.00v3.20l-141.46 0.00"></path>
<path class="stroke" d="m52.00 79.04v-40.20"></path>
<use x="48.50" y="79.04" xlink:href="#hd"></use>
<use x="48.50" y="55.04" xlink:href="#Xhead"></use>
<rect style="fill: transparent;" class="abcr" id="abcNoteNum_1_0" x="42.00" y="49.04" width="13.00" height="42.00"></rect>
<path class="stroke" d="m122.39 55.04v-16.20"></path>
<use x="118.89" y="55.04" xlink:href="#Xhead"></use>
<rect style="fill: transparent;" class="abcr" id="abcNoteNum_1_1" x="112.39" y="49.04" width="13.00" height="42.00"></rect>
<path class="stroke" d="m192.78 55.04v-16.20"></path>
<use x="189.28" y="55.04" xlink:href="#Xhead"></use>
<rect style="fill: transparent;" class="abcr" id="abcNoteNum_1_2" x="182.78" y="49.04" width="13.00" height="42.00"></rect>
<path class="fill" d="m262.82 37.84
l141.46 0.00v3.20l-141.46 0.00"></path>
<path class="stroke" d="m263.16 67.04v-28.20"></path>
<use x="259.66" y="67.04" xlink:href="#hd"></use>
<use x="259.66" y="55.04" xlink:href="#Xhead"></use>
<rect style="fill: transparent;" class="abcr" id="abcNoteNum_1_3" x="253.16" y="49.04" width="13.00" height="42.00"></rect>
<path class="stroke" d="m333.55 55.04v-16.20"></path>
<use x="330.05" y="55.04" xlink:href="#Xhead"></use>
<rect style="fill: transparent;" class="abcr" id="abcNoteNum_1_4" x="323.55" y="49.04" width="13.00" height="42.00"></rect>
<path class="stroke" d="m403.94 55.04v-16.20"></path>
<use x="400.44" y="55.04" xlink:href="#Xhead"></use>
<rect style="fill: transparent;" class="abcr" id="abcNoteNum_1_5" x="393.94" y="49.04" width="13.00" height="42.00"></rect>
<path class="fill" d="m473.99 37.84
l141.46 0.00v3.20l-141.46 0.00"></path>
<path class="stroke" d="m474.33 79.04v-40.20"></path>
<use x="470.83" y="79.04" xlink:href="#hd"></use>
<use x="470.83" y="55.04" xlink:href="#Xhead"></use>
<rect style="fill: transparent;" class="abcr" id="abcNoteNum_1_6" x="464.33" y="49.04" width="13.00" height="42.00"></rect>
<path class="stroke" d="m544.71 55.04v-16.20"></path>
<use x="541.21" y="55.04" xlink:href="#Xhead"></use>
<rect style="fill: transparent;" class="abcr" id="abcNoteNum_1_7" x="534.71" y="49.04" width="13.00" height="42.00"></rect>
<path class="stroke" d="m615.10 55.04v-16.20"></path>
<use x="611.60" y="55.04" xlink:href="#Xhead"></use>
<rect style="fill: transparent;" class="abcr" id="abcNoteNum_1_8" x="605.10" y="49.04" width="13.00" height="42.00"></rect>
<path class="fill" d="m685.15 37.84
l141.46 0.00v3.20l-141.46 0.00"></path>
<path class="stroke" d="m685.49 67.04v-28.20"></path>
<use x="681.99" y="67.04" xlink:href="#hd"></use>
<use x="681.99" y="55.04" xlink:href="#Xhead"></use>
<rect style="fill: transparent;" class="abcr" id="abcNoteNum_1_9" x="675.49" y="49.04" width="13.00" height="42.00"></rect>
<path class="stroke" d="m755.88 55.04v-16.20"></path>
<use x="752.38" y="55.04" xlink:href="#Xhead"></use>
<rect style="fill: transparent;" class="abcr" id="abcNoteNum_1_10" x="745.88" y="49.04" width="13.00" height="42.00"></rect>
<path class="stroke" d="m826.27 55.04v-16.20"></path>
<use x="822.77" y="55.04" xlink:href="#Xhead"></use>
<rect style="fill: transparent;" class="abcr" id="abcNoteNum_1_11" x="816.27" y="49.04" width="13.00" height="42.00"></rect>
<use x="259.66" y="33.34" xlink:href="#accent"></use>
<use x="681.99" y="33.34" xlink:href="#accent"></use>
</g></svg>