<svg xmlns="http://www.w3.org/2000/svg" version="1.1" xmlns:xlink="http://www.w3.org/1999/xlink" xml:space="preserve" color="black" width="9.83in" height="1.06in" viewBox="0 0 708 77">
<title>abc2svg - 6.</title><style type="text/css">
.fill {fill: currentColor}
.stroke {stroke: currentColor; fill: none; stroke-width: .7}
.f1_1 {font:italic 14px serif}
</style><defs>
<path id="pclef" class="stroke" style="stroke-width:1.4" d="m-4 10h5.4v-20h-5.4v20"></path>
<ellipse id="hd" rx="4.1" ry="2.9" transform="rotate(-20)" class="fill"></ellipse>
<path id="Xhead" d="m-3,-3 l6,6 m0,-6 l-6,6" class="stroke" style="stroke-width:1.2"></path>
<g id="accent" class="stroke">
	<path d="m-4 0l8 -2l-8 -2" style="stroke-width:1.2"></path>
</g>
</defs><g transform="scale(0.75)"><path class="stroke" d="m944.00 79.04v-24.00"></path>
<path class="stroke" d="m941.00 79.04v-24.00"></path>
<path class="stroke" d="m0.00 79.04
h944.00m-944.00 -6h944.00m-944.00 -6h944.00m-944.00 -6h944.00m-944.00 -6h944.00"></path>
<use x="12.00" y="67.04" xlink:href="#pclef"></use>
<g style="font:bold 16px serif" transform="translate(30.50,79.04) scale(1.2,1)">
	<text y="-12" text-anchor="middle">5</text>
	<text text-anchor="middle">4</text>
</g>
<path class="fill" d="m51.66 31.84
l132.80 0.00v3.20l-132.80 0.00"></path>
<path class="fill" d="m52.00 36.84
l132.12 0.00v3.20l-132.12 0.00"></path>
<path class="stroke" d="m52.00 76.04v-43.20"></path>
<use x="48.50" y="76.04" xlink:href="#hd"></use>
<use x="48.50" y="52.04" xlink:href="#Xhead"></use>
<rect style="fill: transparent;" class="abcr" id="abcNoteNum_1_0" x="42.00" y="46.04" width="13.00" height="42.00"></rect>
<path class="stroke" d="m96.04 52.04v-19.20"></path>
<use x="92.54" y="52.04" xlink:href="#Xhead"></use>
<rect style="fill: transparent;" class="abcr" id="abcNoteNum_1_1" x="86.04" y="46.04" width="13.00" height="42.00"></rect>
<path class="stroke" d="m140.08 52.04v-19.20"></path>
<use x="136.58" y="52.04" xlink:href="#Xhead"></use>
<rect style="fill: transparent;" class="abcr" id="abcNoteNum_1_2" x="130.08" y="46.04" width="13.00" height="42.00"></rect>
<path class="stroke" d="m184.12 52.04v-19.20"></path>
<use x="180.62" y="52.04" xlink:href="#Xhead"></use>
<rect style="fill: transparent;" class="abcr" id="abcNoteNum_1_3" x="174.12" y="46.04" width="13.00" height="42.00"></rect>
<path class="fill" d="m232.72 31.84
l132.80 0.00v3.20l-132.80 0.00"></path>
<path class="fill" d="m233.06 36.84
l132.12 0.00v3.20l-132.12 0.00"></path>
<path class="stroke" d="m233.06 64.04v-31.20"></path>
<use x="229.56" y="64.04" xlink:href="#hd"></use>
<use x="229.56" y="52.04" xlink:href="#Xhead"></use>
<rect style="fill: transparent;" class="abcr" id="abcNoteNum_1_4" x="223.06" y="46.04" width="13.00" height="42.00"></rect>
<path class="stroke" d="m277.10 52.04v-19.20"></path>
<use x="273.60" y="52.04" xlink:href="#Xhead"></use>
<rect style="fill: transparent;" class="abcr" id="abcNoteNum_1_5" x="267.10" y="46.04" width="13.00" height="42.00"></rect>
<path class="stroke" d="m321.14 52.04v-19.20"></path>
<use x="317.64" y="52.04" xlink:href="#Xhead"></use>
<rect style="fill: transparent;" class="abcr" id="abcNoteNum_1_6" x="311.14" y="46.04" width="13.00" height="42.00"></rect>
<path class="stroke" d="m365.18 52.04v-19.20"></path>
<use x="361.68" y="52.04" xlink:href="#Xhead"></use>
<rect style="fill: transparent;" class="abcr" id="abcNoteNum_1_7" x="355.18" y="46.04" width="13.00" height="42.00"></rect>
<path class="fill" d="m413.77 31.84
l132.80 0.00v3.20l-132.80 0.00"></path>
<path class="fill" d="m414.11 36.84
l132.12 0.00v3.20l-132.12 0.00"></path>
<path class="stroke" d="m414.11 76.04v-43.20"></path>
<use x="410.61" y="76.04" xlink:href="#hd"></use>
<use x="410.61" y="52.04" xlink:href="#Xhead"></use>
<rect style="fill: transparent;" class="abcr" id="abcNoteNum_1_8" x="404.11" y="46.04" width="13.00" height="42.00"></rect>
<path class="stroke" d="m458.16 52.04v-19.20"></path>
<use x="454.66" y="52.04" xlink:href="#Xhead"></use>
<rect style="fill: transparent;" class="abcr" id="abcNoteNum_1_9" x="448.16" y="46.04" width="13.00" height="42.00"></rect>
<path class="stroke" d="m502.20 52.04v-19.20"></path>
<use x="498.70" y="52.04" xlink:href="#Xhead"></use>
<rect style="fill: transparent;" class="abcr" id="abcNoteNum_1_10" x="492.20" y="46.04" width="13.00" height="42.00"></rect>
<path class="stroke" d="m546.24 52.04v-19.20"></path>
<use x="542.74" y="52.04" xlink:href="#Xhead"></use>
<rect style="fill: transparent;" class="abcr" id="abcNoteNum_1_11" x="536.24" y="46.04" width="13.00" height="42.00"></rect>
<path class="fill" d="m594.83 31.84
l132.80 0.00v3.20l-132.80 0.00"></path>
<path class="fill" d="m595.17 36.84
l132.12 0.00v3.20l-132.12 0.00"></path>
<path class="stroke" d="m595.17 64.04v-31.20"></path>
<use x="591.67" y="64.04" xlink:href="#hd"></use>
<use x="591.67" y="52.04" xlink:href="#Xhead"></use>
<rect style="fill: transparent;" class="abcr" id="abcNoteNum_1_12" x="585.17" y="46.04" width="13.00" height="42.00"></rect>
<path class="stroke" d="m639.21 52.04v-19.20"></path>
<use x="635.71" y="52.04" xlink:href="#Xhead"></use>
<rect style="fill: transparent;" class="abcr" id="abcNoteNum_1_13" x="629.21" y="46.04" width="13.00" height="42.00"></rect>
<path class="stroke" d="m683.25 52.04v-19.20"></path>
<use x="679.75" y="52.04" xlink:href="#Xhead"></use>
<rect style="fill: transparent;" class="abcr" id="abcNoteNum_1_14" x="673.25" y="46.04" width="13.00" height="42.00"></rect>
<path class="stroke" d="m727.30 52.04v-19.20"></path>
<use x="723.80" y="52.04" xlink:href="#Xhead"></use>
<rect style="fill: transparent;" class="abcr" id="abcNoteNum_1_15" x="717.30" y="46.04" width="13.00" height="42.00"></rect>
<path class="fill" d="m775.89 31.84
l132.80 0.00v3.20l-132.80 0.00"></path>
<path class="fill" d="m776.23 36.84
l132.12 0.00v3.20l-132.12 0.00"></path>
<path class="stroke" d="m776.23 76.04v-43.20"></path>
<use x="772.73" y="76.04" xlink:href="#hd"></use>
<use x="772.73" y="52.04" xlink:href="#Xhead"></use>
<rect style="fill: transparent;" class="abcr" id="abcNoteNum_1_16" x="766.23" y="46.04" width="13.00" height="42.00"></rect>
<path class="stroke" d="m820.27 52.04v-19.20"></path>
<use x="816.77" y="52.04" xlink:href="#Xhead"></use>
<rect style="fill: transparent;" class="abcr" id="abcNoteNum_1_17" x="810.27" y="46.04" width="13.00" height="42.00"></rect>
<path class="stroke" d="m864.31 52.04v-19.20"></path>
<use x="860.81" y="52.04" xlink:href="#Xhead"></use>
<rect style="fill: transparent;" class="abcr" id="abcNoteNum_1_18" x="854.31" y="46.04" width="13.00" height="42.00"></rect>
<path class="stroke" d="m908.35 52.04v-19.20"></path>
<use x="904.85" y="52.04" xlink:href="#Xhead"></use>
<rect style="fill: transparent;" class="abcr" id="abcNoteNum_1_19" x="898.35" y="46.04" width="13.00" height="42.00"></rect>
<use x="229.56" y="27.34" xlink:href="#accent"></use>
<use x="591.67" y="27.34" xlink:href="#accent"></use>
</g></svg>