<?xml version="1.0" encoding="utf-8"?>
<!-- Generator: Adobe Illustrator 19.1.0, SVG Export Plug-In . SVG Version: 6.00 Build 0)  -->
<svg version="1.1" xmlns="http://www.w3.org/2000/svg" xmlns:xlink="http://www.w3.org/1999/xlink" x="0px" y="0px"
	 viewBox="0 0 254 41" enable-background="new 0 0 254 41" xml:space="preserve">
<style type="text/css">
	.GSlogoText {fill: #393939;}	
</style>
<g id="Layer_1">
</g>
<g id="Layer_2">
	<g>
		<path class="GSlogoText" fill="#FFFFFF" d="M26.5,38.7c-1.5,0.7-3.1,1.2-4.8,1.6c-1.7,0.4-3.7,0.6-6,0.6c-2.3,0-4.4-0.4-6.4-1.1
			c-1.9-0.7-3.6-1.8-4.9-3.1C3,35.4,1.9,33.8,1.2,32C0.4,30.1,0,28.1,0,25.8c0-2.3,0.4-4.4,1.2-6.2c0.8-1.8,1.9-3.4,3.3-4.7
			c1.4-1.3,3-2.3,4.9-3c1.9-0.7,3.9-1.1,6.2-1.1c2.3,0,4.4,0.3,6.3,1c1.9,0.7,3.4,1.5,4.6,2.6l-3.5,3.8c-0.7-0.8-1.7-1.5-3.1-2.1
			c-1.3-0.6-2.7-0.8-4.3-0.8c-1.5,0-2.9,0.3-4.1,0.8c-1.2,0.5-2.3,1.3-3.1,2.2c-0.9,0.9-1.5,2.1-2,3.3c-0.5,1.3-0.7,2.6-0.7,4.1
			c0,1.5,0.2,2.9,0.7,4.2c0.5,1.3,1.1,2.4,2,3.3c0.9,0.9,1.9,1.7,3.2,2.2c1.3,0.5,2.7,0.8,4.3,0.8c2.2,0,4.1-0.3,5.7-1v-7.3h-6v-4.2
			h11V38.7z"/>
		<path class="GSlogoText" fill="#FFFFFF" d="M30.7,20.8h4.7V24h0.1c0.5-1.1,1.3-2,2.3-2.8c1-0.7,2.1-1.1,3.4-1.1c0.2,0,0.4,0,0.6,0
			c0.2,0,0.4,0,0.6,0.1v4.5c-0.3-0.1-0.6-0.1-0.8-0.2c-0.2,0-0.5,0-0.7,0c-1.1,0-2,0.2-2.7,0.6c-0.7,0.4-1.2,0.9-1.6,1.5
			c-0.4,0.6-0.6,1.1-0.8,1.7c-0.1,0.6-0.2,1.1-0.2,1.4v10.4h-4.9V20.8z"/>
		<path class="GSlogoText" fill="#FFFFFF" d="M85.8,19.7c1,0.5,2,1.2,2.8,2c0.6,0.6,1.1,1.2,1.6,1.9V4.4V3.6V0L61.1,5.2v3.6v0.9v9.9c1,0.5,2,1.2,2.8,2
			c0.6,0.6,1.1,1.2,1.6,1.9V8.8l20.3-3.6V19.7z"/>
		<path class="GSlogoText" fill="#FFFFFF" d="M44.4,30.4c0-1.5,0.3-2.9,0.8-4.2c0.6-1.3,1.3-2.3,2.2-3.2c0.9-0.9,2.1-1.6,3.4-2.1
			c1.3-0.5,2.7-0.7,4.1-0.7c1.5,0,2.8,0.2,4.1,0.7c1.3,0.5,2.4,1.2,3.4,2.1c0.9,0.9,1.7,2,2.2,3.2c0.6,1.3,0.8,2.7,0.8,4.2
			c0,1.5-0.3,2.9-0.8,4.2c-0.6,1.3-1.3,2.4-2.2,3.3c-0.9,0.9-2.1,1.6-3.4,2.1c-1.3,0.5-2.7,0.8-4.1,0.8c-1.5,0-2.8-0.3-4.1-0.8
			c-1.3-0.5-2.4-1.2-3.4-2.1c-0.9-0.9-1.7-2-2.2-3.3C44.7,33.4,44.4,32,44.4,30.4z M49.4,30.4c0,0.8,0.1,1.5,0.3,2.3
			c0.2,0.8,0.6,1.4,1,2c0.5,0.6,1,1.1,1.7,1.5c0.7,0.4,1.5,0.6,2.5,0.6c1,0,1.8-0.2,2.5-0.6c0.7-0.4,1.3-0.9,1.7-1.5
			c0.5-0.6,0.8-1.3,1-2c0.2-0.8,0.3-1.5,0.3-2.3c0-0.8-0.1-1.5-0.3-2.2c-0.2-0.7-0.6-1.4-1-2c-0.5-0.6-1-1.1-1.7-1.4
			c-0.7-0.4-1.5-0.5-2.5-0.5c-1,0-1.8,0.2-2.5,0.5c-0.7,0.4-1.3,0.8-1.7,1.4c-0.5,0.6-0.8,1.3-1,2C49.5,28.9,49.4,29.7,49.4,30.4z"
			/>
		<path class="GSlogoText" fill="#FFFFFF" d="M69.1,30.4c0-1.5,0.3-2.9,0.8-4.2c0.6-1.3,1.3-2.3,2.2-3.2s2.1-1.6,3.4-2.1c1.3-0.5,2.7-0.7,4.1-0.7
			s2.8,0.2,4.1,0.7c1.3,0.5,2.4,1.2,3.4,2.1c0.9,0.9,1.7,2,2.2,3.2c0.6,1.3,0.8,2.7,0.8,4.2c0,1.5-0.3,2.9-0.8,4.2
			c-0.6,1.3-1.3,2.4-2.2,3.3c-0.9,0.9-2.1,1.6-3.4,2.1c-1.3,0.5-2.7,0.8-4.1,0.8s-2.8-0.3-4.1-0.8c-1.3-0.5-2.4-1.2-3.4-2.1
			c-0.9-0.9-1.7-2-2.2-3.3C69.4,33.4,69.1,32,69.1,30.4z M74,30.4c0,0.8,0.1,1.5,0.3,2.3c0.2,0.8,0.6,1.4,1,2c0.5,0.6,1,1.1,1.7,1.5
			c0.7,0.4,1.5,0.6,2.5,0.6s1.8-0.2,2.5-0.6c0.7-0.4,1.3-0.9,1.7-1.5c0.5-0.6,0.8-1.3,1-2c0.2-0.8,0.3-1.5,0.3-2.3
			c0-0.8-0.1-1.5-0.3-2.2c-0.2-0.7-0.6-1.4-1-2c-0.5-0.6-1-1.1-1.7-1.4c-0.7-0.4-1.5-0.5-2.5-0.5s-1.8,0.2-2.5,0.5
			c-0.7,0.4-1.3,0.8-1.7,1.4c-0.5,0.6-0.8,1.3-1,2C74.1,28.9,74,29.7,74,30.4z"/>
		<path  class="GSlogoText" fill="#FFFFFF" d="M92.3,20.8h5.3l5.1,14.2h0.1l5.1-14.2h5.1l-7.7,19.4h-5.2L92.3,20.8z"/>
		<path  class="GSlogoText" fill="#FFFFFF" d="M132.8,30.8c0,0.2,0,0.4,0,0.6c0,0.2,0,0.4,0,0.6H118c0.1,0.7,0.2,1.3,0.5,1.9c0.3,0.6,0.7,1.1,1.2,1.5
			c0.5,0.4,1.1,0.7,1.7,1c0.6,0.2,1.3,0.4,2,0.4c1.2,0,2.2-0.2,3.1-0.7c0.8-0.4,1.5-1.1,2.1-1.8l3.2,2.6c-1.9,2.6-4.7,3.9-8.3,3.9
			c-1.5,0-2.9-0.2-4.2-0.7c-1.3-0.5-2.4-1.1-3.3-2c-0.9-0.9-1.7-1.9-2.2-3.2c-0.5-1.3-0.8-2.7-0.8-4.3c0-1.6,0.3-3,0.8-4.3
			c0.5-1.3,1.2-2.4,2.2-3.3c0.9-0.9,2-1.6,3.3-2.1c1.3-0.5,2.6-0.7,4.1-0.7c1.3,0,2.6,0.2,3.7,0.7c1.1,0.4,2.1,1.1,3,2
			c0.8,0.9,1.5,2,2,3.3C132.5,27.5,132.8,29,132.8,30.8z M127.9,28.6c0-0.6-0.1-1.2-0.3-1.8s-0.5-1.1-0.8-1.5
			c-0.4-0.4-0.9-0.8-1.4-1c-0.6-0.3-1.3-0.4-2-0.4c-1.5,0-2.7,0.4-3.7,1.3c-1,0.9-1.6,2-1.7,3.4H127.9z"/>
		<path class="GSlogoText" fill="#FFFFFF" d="M160.4,17.6c-0.5-0.7-1.3-1.3-2.3-1.8c-1-0.5-2-0.7-3-0.7c-0.6,0-1.2,0.1-1.8,0.2
			c-0.6,0.1-1.1,0.4-1.6,0.7c-0.5,0.3-0.9,0.7-1.2,1.2c-0.3,0.5-0.5,1.1-0.5,1.8c0,0.6,0.1,1.2,0.4,1.7c0.3,0.5,0.6,0.8,1.1,1.2
			c0.5,0.3,1,0.6,1.7,0.8c0.7,0.2,1.4,0.5,2.2,0.7c0.9,0.3,1.9,0.6,2.9,1c1,0.4,1.9,0.9,2.7,1.5c0.8,0.6,1.5,1.4,2,2.3
			c0.5,0.9,0.8,2.1,0.8,3.5c0,1.5-0.3,2.9-0.8,4c-0.6,1.1-1.3,2.1-2.3,2.9c-0.9,0.8-2,1.3-3.3,1.7c-1.3,0.4-2.6,0.6-4,0.6
			c-1.9,0-3.7-0.3-5.5-1s-3.2-1.7-4.4-3.1l3.6-3.4c0.7,1,1.6,1.7,2.8,2.3c1.2,0.6,2.3,0.8,3.5,0.8c0.6,0,1.2-0.1,1.8-0.2
			c0.6-0.1,1.2-0.4,1.7-0.7c0.5-0.4,0.9-0.8,1.2-1.3c0.3-0.5,0.5-1.2,0.5-2c0-0.8-0.2-1.4-0.5-1.9c-0.4-0.5-0.8-0.9-1.4-1.3
			c-0.6-0.4-1.3-0.7-2.1-1c-0.8-0.3-1.7-0.6-2.5-0.8c-0.9-0.3-1.7-0.6-2.6-1c-0.9-0.4-1.6-0.9-2.3-1.5c-0.7-0.6-1.2-1.4-1.7-2.3
			c-0.4-0.9-0.6-2-0.6-3.4c0-1.5,0.3-2.7,0.9-3.8c0.6-1.1,1.4-1.9,2.4-2.6c1-0.7,2.1-1.2,3.4-1.5c1.3-0.3,2.5-0.5,3.8-0.5
			c1.5,0,2.9,0.3,4.4,0.8c1.5,0.5,2.8,1.3,3.9,2.3L160.4,17.6z"/>
		<path class="GSlogoText" fill="#FFFFFF" d="M181.2,26.2c-0.4-0.5-0.9-1-1.7-1.4c-0.8-0.4-1.5-0.5-2.3-0.5c-0.9,0-1.7,0.2-2.3,0.5
			c-0.7,0.4-1.2,0.8-1.7,1.4c-0.4,0.6-0.8,1.3-1,2c-0.2,0.7-0.3,1.5-0.3,2.2c0,0.8,0.1,1.5,0.3,2.2c0.2,0.7,0.6,1.4,1,2
			c0.5,0.6,1,1.1,1.7,1.4c0.7,0.4,1.5,0.5,2.4,0.5c0.8,0,1.5-0.1,2.3-0.4c0.8-0.3,1.4-0.7,1.8-1.3l3,3.1c-0.8,0.9-1.8,1.5-3.1,2
			c-1.3,0.5-2.6,0.7-4.1,0.7c-1.4,0-2.8-0.2-4.1-0.7c-1.3-0.5-2.4-1.1-3.4-2c-1-0.9-1.7-2-2.3-3.2c-0.6-1.3-0.8-2.7-0.8-4.3
			c0-1.6,0.3-3,0.8-4.2c0.6-1.3,1.3-2.3,2.2-3.2c0.9-0.9,2-1.6,3.3-2.1c1.3-0.5,2.6-0.7,4-0.7c1.4,0,2.8,0.3,4.1,0.8
			c1.3,0.5,2.4,1.3,3.2,2.2L181.2,26.2z"/>
		<path class="GSlogoText" fill="#FFFFFF" d="M186.8,20.8h4.7V24h0.1c0.5-1.1,1.3-2,2.3-2.8c1-0.7,2.1-1.1,3.4-1.1c0.2,0,0.4,0,0.6,0
			c0.2,0,0.4,0,0.6,0.1v4.5c-0.3-0.1-0.6-0.1-0.8-0.2c-0.2,0-0.5,0-0.7,0c-1.1,0-2,0.2-2.7,0.6c-0.7,0.4-1.2,0.9-1.6,1.5
			s-0.6,1.1-0.8,1.7c-0.1,0.6-0.2,1.1-0.2,1.4v10.4h-4.9V20.8z"/>
		<path class="GSlogoText" fill="#FFFFFF" d="M200.9,14.2c0-0.8,0.3-1.5,0.9-2c0.6-0.6,1.3-0.9,2.2-0.9c0.9,0,1.6,0.3,2.2,0.8c0.6,0.6,0.9,1.2,0.9,2.1
			c0,0.8-0.3,1.5-0.9,2.1c-0.6,0.6-1.4,0.8-2.2,0.8c-0.9,0-1.6-0.3-2.2-0.9C201.2,15.7,200.9,15,200.9,14.2z M201.6,20.8h4.9v19.4
			h-4.9V20.8z"/>
		<path class="GSlogoText" fill="#FFFFFF" d="M216.5,9.6v13.6h0.1c0.2-0.3,0.6-0.7,0.9-1c0.4-0.4,0.8-0.7,1.4-1c0.5-0.3,1.1-0.5,1.8-0.7
			c0.7-0.2,1.5-0.3,2.4-0.3c1.4,0,2.6,0.3,3.8,0.8c1.2,0.5,2.2,1.2,3,2.2c0.8,0.9,1.5,2,1.9,3.2c0.5,1.2,0.7,2.6,0.7,4
			c0,1.4-0.2,2.8-0.7,4c-0.4,1.3-1.1,2.3-1.9,3.3c-0.8,0.9-1.8,1.7-3,2.2c-1.2,0.6-2.5,0.8-4,0.8c-1.4,0-2.7-0.3-3.9-0.9
			c-1.2-0.6-2.1-1.5-2.8-2.6h-0.1v2.9h-4.6V9.6H216.5z M227.6,30.4c0-0.8-0.1-1.5-0.3-2.2c-0.2-0.7-0.6-1.4-1-2
			c-0.5-0.6-1-1.1-1.7-1.4c-0.7-0.4-1.5-0.5-2.5-0.5c-0.9,0-1.7,0.2-2.4,0.6c-0.7,0.4-1.3,0.9-1.8,1.5c-0.5,0.6-0.9,1.3-1.1,2
			c-0.3,0.8-0.4,1.5-0.4,2.3c0,0.8,0.1,1.5,0.4,2.2c0.3,0.7,0.6,1.4,1.1,2c0.5,0.6,1.1,1.1,1.8,1.4c0.7,0.4,1.5,0.5,2.4,0.5
			c0.9,0,1.8-0.2,2.5-0.6c0.7-0.4,1.3-0.9,1.7-1.5c0.5-0.6,0.8-1.3,1-2C227.5,31.9,227.6,31.2,227.6,30.4z"/>
		<path class="GSlogoText" fill="#FFFFFF" d="M254,30.8c0,0.2,0,0.4,0,0.6c0,0.2,0,0.4,0,0.6h-14.8c0.1,0.7,0.2,1.3,0.5,1.9c0.3,0.6,0.7,1.1,1.2,1.5
			c0.5,0.4,1.1,0.7,1.7,1c0.6,0.2,1.3,0.4,2,0.4c1.2,0,2.2-0.2,3.1-0.7s1.5-1.1,2.1-1.8l3.2,2.6c-1.9,2.6-4.7,3.9-8.3,3.9
			c-1.5,0-2.9-0.2-4.2-0.7c-1.3-0.5-2.4-1.1-3.3-2c-0.9-0.9-1.7-1.9-2.2-3.2c-0.5-1.3-0.8-2.7-0.8-4.3c0-1.6,0.3-3,0.8-4.3
			c0.5-1.3,1.2-2.4,2.2-3.3c0.9-0.9,2-1.6,3.3-2.1c1.3-0.5,2.6-0.7,4.1-0.7c1.3,0,2.6,0.2,3.7,0.7c1.1,0.4,2.1,1.1,3,2
			c0.8,0.9,1.5,2,2,3.3C253.8,27.5,254,29,254,30.8z M249.2,28.6c0-0.6-0.1-1.2-0.3-1.8s-0.5-1.1-0.8-1.5c-0.4-0.4-0.9-0.8-1.4-1
			c-0.6-0.3-1.3-0.4-2-0.4c-1.5,0-2.7,0.4-3.7,1.3c-1,0.9-1.6,2-1.7,3.4H249.2z"/>
	</g>
</g>
</svg>
