<?xml version="1.0"?>
<svg width="180" height="72" viewbox="0 0 180 72" xmlns="http://www.w3.org/2000/svg" xmlns:svg="http://www.w3.org/2000/svg">
 <g>
  <title>Layer 1</title>
  <g id="svg_2">
   <path id="svg_3" d="m22.036011,8.73999c-1.695007,-1.622009 -4.257996,-2.452999 -6.46701,-2.452999c-5.247986,0 -8.677979,3.006008 -8.677979,9.062008c0,3.957981 2.168972,8.905003 8.677979,8.905003c1.932006,0 3.746001,-0.316013 5.876006,-1.938023l0,-4.432981l-6.587981,0l0,-5.14502l11.910979,0l0,12.069002c-2.363968,3.405003 -6.152008,5.14603 -11.238975,5.14603c-10.650023,0 -14.671015,-7.402012 -14.671015,-14.605016c0,-7.79599 4.572999,-14.722992 14.710003,-14.722992c3.745975,0 7.138,1.030001 10.291997,4.274994l-3.824005,3.84l0,-0.00001l0,-0.000001l0,0.000001l0,0.000001l0,0.000001l0,0.000001z" fill="#62C04C"/>
   <path id="svg_4" d="m57.606995,29.164001l-6.822998,0l-7.060013,-9.105011l-4.457001,0l0,9.105011l-6.152969,0l0,-27.707c4.495972,0 8.639984,0 13.095978,0c6.665009,0 10.214005,4.472988 10.214005,9.34201c-0.037994,3.60199 -1.104004,6.806 -6.391022,8.707977l7.57402,9.181l0,0.476013l0,0zm-18.338989,-22.402011l0,8.073001l7.021011,0c2.839996,0 4.061996,-2.136992 4.061996,-3.879005c-0.040009,-1.899989 -1.264008,-4.193997 -4.141998,-4.193997l-6.94101,0l0,0.000001z" fill="#62C04C"/>
   <path id="svg_5" d="m143.166016,29.282009l-6.350006,0l-11.516022,-27.825008l6.902008,0l7.769989,20.462009l7.77002,-20.462009l6.901978,0l-11.477966,27.825008z" fill="#62C04C"/>
   <path id="svg_6" d="m179.531982,29.164001l-21.021973,0c0,-9.224003 0,-18.48502 0,-27.707l20.469971,0l0,5.661011l-14.435974,0l0,5.342987l13.609985,0l0,5.422001l-13.609985,0l0,5.580021l14.987976,0l0,5.700989l0,0l0,-0.000008z" fill="#62C04C"/>
   <path id="svg_7" d="m18.763,48.886993c-1.540009,-1.623993 -4.220001,-2.333023 -6.390991,-2.333023c-2.718994,0 -4.930023,1.145996 -4.930023,3.047997c0,2.530014 2.407013,3.006004 5.955017,3.323013c5.442993,0.47699 10.610001,2.571007 10.610001,8.984009c0,6.173004 -5.681,8.865997 -11.636978,8.904999c-4.771008,0.040993 -9.741013,-1.821007 -12.067994,-5.697998l3.669023,-3.841003c2.126967,2.731995 5.638989,3.919014 8.437997,3.919014c3.274981,0 5.523001,-1.306 5.523001,-3.285004c0.039993,-2.334976 -1.814987,-3.402008 -5.561996,-3.721008c-5.837021,-0.553986 -11.042999,-2.018997 -10.963989,-8.549011c0.038986,-5.501976 5.245987,-8.431 10.923981,-8.431c4.262011,0 7.456009,0.951019 10.295,4.275024l-3.862001,3.403992l-0.000031,0l-0.000032,0.000015l0,-0.000015l0.000015,0l0.000002,0z" fill="#FFFFFF"/>
   <path id="svg_8" d="m52.640015,66.539001c-2.841003,2.810997 -6.51001,4.076996 -10.610031,4.076996c-10.530991,0 -14.710999,-6.80899 -14.751968,-14.366997c-0.037979,-7.164001 4.615997,-14.684998 14.751968,-14.684998c3.785004,0 7.297012,1.46701 10.137039,4.275986l-3.86702,3.840004c-1.654984,-1.625 -4.061996,-2.298004 -6.27002,-2.298004c-6.27095,0 -8.717972,4.869019 -8.677979,8.907013c0.039978,4.036011 2.209991,8.627991 8.677979,8.627991c2.208023,0 5.126999,-0.98999 6.784012,-2.651993l3.826019,4.273987l0,-0.000015l0,0.000015l0,0.000023l0,-0.000008z" fill="#FFFFFF"/>
   <path id="svg_9" d="m81.427002,69.903023l-6.821991,0l-7.062012,-9.104004l-4.457001,0l0,9.104004l-6.151001,0l0,-27.705994c4.496002,0 8.638,0 13.095001,0c6.666016,0 10.214996,4.475014 10.214996,9.34201c-0.039001,3.60199 -1.10498,6.807983 -6.389969,8.707977l7.571991,9.181l0,0.475014l-0.000015,-0.000008zm-18.341003,-22.402023l0,8.075012l7.022003,0c2.839996,0 4.062012,-2.136024 4.062012,-3.878998c-0.041031,-1.899025 -1.262024,-4.196014 -4.141022,-4.196014l-6.942993,0z" fill="#FFFFFF"/>
   <path id="svg_10" d="m86.946014,69.903023l0,-27.705994l6.110992,0l0,27.705994l-6.110992,0z" fill="#FFFFFF"/>
   <path id="svg_11" d="m113.729004,42.196991c5.246002,0 9.584991,2.375 9.584991,7.520996c0,2.294014 -1.026001,4.433014 -3.669006,5.659004c3.511017,1.266998 4.969025,4.827995 4.378021,8.034996c-0.826996,4.471024 -4.533997,6.48999 -10.059021,6.48999c-4.455994,0 -9.343994,0 -13.843002,0l0,-27.705986l13.608017,0l0,0.001007l0,-0.000008zm-7.57402,10.769012l7.49501,0c2.407013,0 3.58902,-0.991005 3.58902,-2.613014c0,-1.622986 -1.183014,-2.809998 -3.511017,-2.809998l-7.573013,0l0,5.422997l0,0.000023l0,-0.000008zm0,11.553986l7.573013,0c2.763,0 4.063995,-1.226006 4.063995,-3.164001c0,-1.938995 -1.42099,-3.243988 -4.143005,-3.243988c-2.444977,0 -5.049988,0 -7.49501,0l0,6.40799l0.001007,0z" fill="#FFFFFF"/>
   <path id="svg_12" d="m150.72699,69.903023l-21.020996,0c0,-9.222992 0,-18.483002 0,-27.705994l20.468994,0l0,5.660004l-14.434998,0l0,5.343987l13.606995,0l0,5.42099l-13.606995,0l0,5.582001l14.987,0l0,5.699013l0,0z" fill="#FFFFFF"/>
   <path id="svg_13" d="m75.772003,29.95401c-8.042999,0 -14.582001,-6.54401 -14.582001,-14.585999c0,-8.043005 6.539001,-14.583012 14.582001,-14.583012c8.041992,0 14.583984,6.541019 14.583984,14.583012c0,8.040989 -6.541992,14.585999 -14.583984,14.585999zm0.002991,-23.348019c-4.833008,0 -8.761993,3.929989 -8.761993,8.765007c0,4.82999 3.929993,8.758003 8.761993,8.758003c4.829987,0 8.76001,-3.92902 8.76001,-8.758003c0,-4.833008 -3.931,-8.765007 -8.76001,-8.765007z" fill="#62C04C"/>
   <path id="svg_14" d="m109.739014,29.95401c-8.041992,0 -14.582001,-6.54401 -14.582001,-14.585999c0,-8.043005 6.540009,-14.583012 14.582001,-14.583012c8.044006,0 14.583008,6.541019 14.583008,14.583012c-0.000031,8.040989 -6.540009,14.585999 -14.583008,14.585999zm0.003998,-23.348019c-4.833008,0 -8.761993,3.929989 -8.761993,8.765007c0,4.82999 3.929993,8.758003 8.761993,8.758003c4.830994,0 8.759003,-3.92902 8.759003,-8.758003c0,-4.833008 -3.929016,-8.765007 -8.759003,-8.765007z" fill="#62C04C"/>
  </g>
 </g>
</svg>
