<?xml version="1.0"?>
<svg width="60" heigth="90" viewBox="0 0 60 90" xmlns="http://www.w3.org/2000/svg" xmlns:svg="http://www.w3.org/2000/svg">
 <g>
  <title>Layer 1</title>
  <g id="svg_15">
   <path fill="#FFFFFF" d="m27.467991,47.742001c-12.28299,0 -22.276001,-9.997009 -22.276001,-22.284c0,-12.27402 9.99402,-22.272 22.276001,-22.272c12.278019,0 22.269009,9.99799 22.269009,22.272c-0.001011,12.286991 -9.992001,22.284 -22.269009,22.284zm0,-37.078001c-8.159,0 -14.794981,6.644011 -14.794981,14.79801c0,8.162979 6.63599,14.791981 14.794981,14.791981c8.157009,0 14.803009,-6.629002 14.803009,-14.791981c0,-8.153999 -6.646,-14.79801 -14.803009,-14.79801z" id="svg_16"/>
   <path fill="#62C04C" d="m27.467991,33.90799c-4.665991,0 -8.445011,-3.786989 -8.445011,-8.446009c0,-4.653992 3.77902,-8.440981 8.445011,-8.440981c4.64999,0 8.444,3.786989 8.444,8.440981c0.001007,4.659029 -3.792999,8.446009 -8.444,8.446009z" id="svg_17"/>
   <g id="svg_18">
    <path fill="#FFFFFF" d="m28.13699,85.571991c-5.79599,0 -24.746,-1.138 -24.746,-15.771004c0,-0.921997 0.125,-1.834976 0.39099,-2.791977l0.09399,-0.292999l9.21902,0l-0.151,0.517967c-0.198,0.701019 -0.311,1.417999 -0.311,2.137024c0,6.332001 7.898991,8.583977 15.29199,8.583977c3.610991,0 15.394989,-0.626007 15.394989,-8.687988c0,-4.349014 -3.515987,-6.41901 -11.064968,-6.52301c-6.87302,0 -11.539001,-0.159 -15.027012,-0.983002c-3.431,-0.807007 -4.132019,-1.12698 -6.926999,-2.752987c-3.63602,-2.385014 -5.39401,-5.328003 -5.39401,-8.99802c0,-3.687992 1.854,-6.860981 5.668,-9.716003c0.72501,-0.502987 1.51801,-0.750977 2.37802,-0.750977c1.92099,0 3.824981,1.311977 4.16199,2.865997c0.22501,1.028992 0.48801,0.685001 -0.84,1.881992c-0.85501,0.766968 -3.64001,2.702 -3.64001,5.167988c0,5.662041 10.78802,5.662041 17.235021,5.662041c16.113977,0 22.693998,4.063999 22.693998,14.03598c-0.00198,14.282013 -15.29599,16.415009 -24.427,16.415009l-0.00001,0.000031l0,-0.000031l0,0l0,-0.000008z" id="svg_19"/>
   </g>
   <g id="svg_20">
    <path fill="#FFFFFF" d="m46.504002,15.08499c-0.225983,0 -0.423,-0.101009 -4.70599,-2.934999c-2.208023,-1.46399 -4.708023,-3.121 -5.758003,-3.72501l-1.31601,-0.75101l20.405003,0l0,5.715l-8.224003,1.370999c-0.006989,0.01501 -0.006989,0.03802 -0.01498,0.05801l-0.104,0.263l-0.282009,0.004l-0.000019,0.00001l0.000011,0z" id="svg_21"/>
   </g>
  </g>
 </g>
</svg>
