<?xml version="1.0" encoding="UTF-8" standalone="no"?>
<svg
   xmlns:dc="http://purl.org/dc/elements/1.1/"
   xmlns:cc="http://creativecommons.org/ns#"
   xmlns:rdf="http://www.w3.org/1999/02/22-rdf-syntax-ns#"
   xmlns:svg="http://www.w3.org/2000/svg"
   xmlns="http://www.w3.org/2000/svg"
   xmlns:sodipodi="http://sodipodi.sourceforge.net/DTD/sodipodi-0.dtd"
   xmlns:inkscape="http://www.inkscape.org/namespaces/inkscape"
   width="140"
   height="140"
   viewbox="0 0 360 125"
   version="1.1"
   id="svg27"
   sodipodi:docname="GScribe_Iconl.svg"
   inkscape:version="0.92.5 (2060ec1f9f, 2020-04-08)">
  <metadata
     id="metadata33">
    <rdf:RDF>
      <cc:Work
         rdf:about="">
        <dc:format>image/svg+xml</dc:format>
        <dc:type
           rdf:resource="http://purl.org/dc/dcmitype/StillImage" />
        <dc:title></dc:title>
      </cc:Work>
    </rdf:RDF>
  </metadata>
  <defs
     id="defs31" />
  <sodipodi:namedview
     pagecolor="#ffffff"
     bordercolor="#666666"
     borderopacity="1"
     objecttolerance="10"
     gridtolerance="10"
     guidetolerance="10"
     inkscape:pageopacity="0"
     inkscape:pageshadow="2"
     inkscape:window-width="2560"
     inkscape:window-height="1537"
     id="namedview29"
     showgrid="false"
     inkscape:zoom="6.3111111"
     inkscape:cx="68.039233"
     inkscape:cy="63.456593"
     inkscape:window-x="-8"
     inkscape:window-y="-8"
     inkscape:window-maximized="1"
     inkscape:current-layer="g25" />
  <g
     id="g25"
     transform="translate(-84.071686,44.646206)">
    <title
       id="title2">Layer 1</title>
    <rect
       style="fill:#62c04c;fill-opacity:1;stroke-width:1.00178695"
       id="rect35"
       width="140"
       height="140"
       x="84.071686"
       y="-44.646206" />
    <rect
       id="svg_1"
       height="125"
       width="125"
       y="-37.247181"
       x="91.67733"
       style="fill:#000000" />
    <g
       id="svg_15"
       transform="translate(91.677326,-37.247182)">
      <path
         id="svg_16"
         d="m 60.467991,65.741997 c -12.28299,0 -22.276001,-9.997005 -22.276001,-22.283997 0,-12.274019 9.994019,-22.271999 22.276001,-22.271999 12.278019,0 22.269009,9.99799 22.269009,22.271999 -10e-4,12.286991 -9.991997,22.283997 -22.269009,22.283997 z m 0,-37.077997 c -8.159,0 -14.794979,6.644011 -14.794979,14.798002 0,8.162987 6.635986,14.791988 14.794979,14.791988 8.157009,0 14.803013,-6.629002 14.803013,-14.791988 C 75.271004,35.30801 68.625,28.664 60.467991,28.664 Z"
         inkscape:connector-curvature="0"
         style="fill:#ffffff" />
      <path
         id="svg_17"
         d="m 60.467991,51.90799 c -4.665993,0 -8.445011,-3.786991 -8.445011,-8.446011 0,-4.653988 3.779018,-8.440979 8.445011,-8.440979 4.64999,0 8.443996,3.786991 8.443996,8.440979 0.001,4.659031 -3.792999,8.446011 -8.443996,8.446011 z"
         inkscape:connector-curvature="0"
         style="fill:#62c04c;fill-opacity:1" />
      <g
         id="svg_18">
        <path
           id="svg_19"
           d="m 61.13699,103.57199 c -5.79599,0 -24.745998,-1.138 -24.745998,-15.771003 0,-0.921997 0.125,-1.834976 0.390987,-2.791977 l 0.09399,-0.292999 h 9.219021 l -0.151001,0.517967 c -0.197998,0.701019 -0.310997,1.417999 -0.310997,2.137024 0,6.332001 7.898987,8.583977 15.291988,8.583977 3.610992,0 15.394989,-0.626007 15.394989,-8.687988 0,-4.349014 -3.515991,-6.419014 -11.064972,-6.52301 -6.873016,0 -11.538998,-0.159004 -15.027008,-0.983002 -3.431,-0.807007 -4.132019,-1.126976 -6.926998,-2.752991 -3.636021,-2.38501 -5.394012,-5.327995 -5.394012,-8.998016 0,-3.687988 1.854,-6.860981 5.668003,-9.716003 0.72501,-0.502987 1.518009,-0.750977 2.378017,-0.750977 1.92099,0 3.824982,1.311977 4.161991,2.865997 0.22501,1.028992 0.48801,0.685001 -0.84,1.881992 -0.855011,0.766998 -3.640011,2.702 -3.640011,5.167995 0,5.662033 10.788021,5.662033 17.23502,5.662033 16.113979,0 22.694004,4.064003 22.694004,14.03598 C 85.562019,101.439 70.268013,103.572 61.137001,103.572 l -1.1e-5,3e-5 v -3e-5 0 z"
           inkscape:connector-curvature="0"
           style="fill:#ffffff" />
      </g>
      <g
         id="svg_20">
        <path
           id="svg_21"
           d="m 79.503998,33.084991 c -0.225975,0 -0.422997,-0.101013 -4.705986,-2.935001 -2.208023,-1.463989 -4.708023,-3.121 -5.758003,-3.72501 l -1.31601,-0.751011 h 20.404999 v 5.715 l -8.223999,1.371002 c -0.007,0.01501 -0.007,0.03802 -0.01498,0.05801 l -0.104004,0.262997 -0.282005,0.004 -2.3e-5,1.1e-5 z"
           inkscape:connector-curvature="0"
           style="fill:#ffffff" />
      </g>
    </g>
  </g>
</svg>
