<?xml version="1.0"?>
<svg width="260" height="125" viewbox="0 0 260 125" xmlns="http://www.w3.org/2000/svg" xmlns:svg="http://www.w3.org/2000/svg">
 <g>
  <title>Layer 1</title>
  <rect width="260" height="125" id="svg_1" fill="black" y="0" x="0"/>
  <path fill="#FFFFFF" d="m46.457001,68.035004c-13.533997,0 -24.545013,-11.015991 -24.545013,-24.553986c0,-13.525024 11.012024,-24.541016 24.545013,-24.541016c13.528992,0 24.536987,11.015991 24.536987,24.541016c-0.000977,13.537994 -11.009003,24.553986 -24.536987,24.553986zm0,-40.856018c-8.98999,0 -16.302002,7.321014 -16.302002,16.306c0,8.993988 7.312012,16.298004 16.302002,16.298004c8.989014,0 16.311005,-7.304016 16.311005,-16.298004c0,-8.984985 -7.321991,-16.306 -16.311005,-16.306z" id="svg_2"/>
  <path fill="#F7941E" d="m46.457001,52.790985c-5.140991,0 -9.304993,-4.173004 -9.304993,-9.306c0,-5.127991 4.164001,-9.300995 9.304993,-9.300995c5.123993,0 9.304993,4.173004 9.304993,9.300995c0,5.133026 -4.181,9.306 -9.304993,9.306z" id="svg_3"/>
  <g id="svg_4">
   <path fill="#FFFFFF" d="m47.194,109.718994c-6.386993,0 -27.266998,-1.253998 -27.266998,-17.377014c0,-1.015991 0.136993,-2.021973 0.431,-3.075989l0.102997,-0.324005l10.15799,0l-0.165976,0.571014c-0.218018,0.772003 -0.342009,1.561981 -0.342009,2.354004c0,6.97699 8.704006,9.458984 16.848999,9.458984c3.98,0 16.963001,-0.690002 16.963001,-9.574005c0,-4.790985 -3.873989,-7.072998 -12.192974,-7.187988c-7.572998,0 -12.714035,-0.175018 -16.558014,-1.084015c-3.780005,-0.888 -4.553017,-1.240997 -7.633003,-3.03299c-4.006012,-2.627991 -5.942987,-5.871002 -5.942987,-9.915009c0,-4.061981 2.042995,-7.561005 6.245996,-10.704987c0.798002,-0.554993 1.671995,-0.828003 2.619995,-0.828003c2.115997,0 4.214993,1.446014 4.585999,3.157013c0.247986,1.134979 0.537991,0.754974 -0.925999,2.073975c-0.943024,0.845001 -4.011019,2.978027 -4.011019,5.695007c0,6.238007 11.886995,6.238007 18.990019,6.238007c17.756985,0 25.005978,4.479004 25.005978,15.466003c0,15.739014 -16.851982,18.089996 -26.912987,18.089996l-0.000008,0z" id="svg_5"/>
  </g>
  <g id="svg_6">
   <path fill="#FFFFFF" d="m67.431,32.050995c-0.247986,0 -0.464996,-0.110992 -5.18399,-3.234009c-2.432007,-1.612976 -5.188019,-3.438995 -6.345001,-4.104004l-1.450012,-0.827972l22.484009,0l0,6.296997l-9.062012,1.509979c-0.007996,0.016998 -0.007996,0.042023 -0.016998,0.063995l-0.11499,0.290009l-0.311005,0.005005z" id="svg_7"/>
  </g>
  <g id="svg_8">
   <path fill="#F7941E" d="m115.386993,46.970001c-1.303009,-1.248993 -3.277985,-1.886993 -4.972015,-1.886993c-4.041992,0 -6.68399,2.309998 -6.68399,6.971008c0,3.046997 1.671021,6.852997 6.68399,6.852997c1.483002,0 2.875,-0.242004 4.516022,-1.492004l0,-3.411011l-5.065002,0l0,-3.957001l9.162994,0l0,9.286011c-1.820984,2.621002 -4.730011,3.960999 -8.647003,3.960999c-8.195984,0 -11.292999,-5.696014 -11.292999,-11.239014c0,-5.997986 3.522003,-11.326996 11.326996,-11.326996c2.875,0 5.487,0.791992 7.914001,3.289001l-2.942993,2.953003z" id="svg_9"/>
   <path fill="#F7941E" d="m142.76001,62.686005l-5.253998,0l-5.430023,-7.006012l-3.427979,0l0,7.006012l-4.737,0l0,-21.319c3.461975,0 6.648987,0 10.078003,0c5.128998,0 7.857971,3.440002 7.857971,7.187988c-0.02597,2.77002 -0.847992,5.238007 -4.913971,6.697998l5.827972,7.067017l0,0.365997l-0.000977,0zm-14.113007,-17.238007l0,6.210999l5.399994,0c2.187012,0 3.127991,-1.643982 3.127991,-2.984009c-0.030975,-1.463989 -0.971985,-3.22699 -3.187988,-3.22699l-5.339996,0z" id="svg_10"/>
   <path fill="#F7941E" d="m208.59201,62.776001l-4.882996,0l-8.867004,-21.408997l5.312988,0l5.980011,15.744995l5.980011,-15.744995l5.30899,0l-8.832001,21.408997z" id="svg_11"/>
   <path fill="#F7941E" d="m236.575989,62.686005l-16.178009,0c0,-7.097992 0,-14.222992 0,-21.319l15.752014,0l0,4.354004l-11.108002,0l0,4.110992l10.468994,0l0,4.171997l-10.468994,0l0,4.296021l11.533997,0l0,4.385986z" id="svg_12"/>
   <path fill="#FFFFFF" d="m112.868988,77.862c-1.182007,-1.248993 -3.243988,-1.795013 -4.919006,-1.795013c-2.087982,0 -3.792999,0.881012 -3.792999,2.345001c0,1.945007 1.851013,2.314026 4.587006,2.555023c4.181,0.368988 8.162994,1.979004 8.162994,6.916992c0,4.748993 -4.369995,6.819 -8.957001,6.848999c-3.669006,0.029999 -7.496002,-1.399017 -9.283997,-4.381012l2.821991,-2.957001c1.641022,2.102997 4.33902,3.015015 6.492004,3.015015c2.520996,0 4.252014,-1.005005 4.252014,-2.524994c0.033997,-1.798004 -1.399994,-2.619019 -4.28302,-2.867004c-4.488983,-0.421997 -8.496979,-1.550995 -8.432983,-6.574005c0.026001,-4.234009 4.033997,-6.487 8.406982,-6.487c3.274017,0 5.735016,0.729004 7.922028,3.285004l-2.976013,2.619995z" id="svg_13"/>
   <path fill="#FFFFFF" d="m138.937012,91.442993c-2.186005,2.164001 -5.009003,3.139008 -8.162994,3.139008c-8.105011,0 -11.322998,-5.238007 -11.352997,-11.056c-0.031006,-5.513 3.548004,-11.298004 11.352997,-11.298004c2.912994,0 5.61499,1.130005 7.796997,3.289001l-2.972992,2.95401c-1.275024,-1.249023 -3.127014,-1.768005 -4.824005,-1.768005c-4.828003,0 -6.709991,3.746979 -6.675995,6.852997c0.026001,3.108002 1.696991,6.641998 6.675995,6.641998c1.696991,0 3.944,-0.765015 5.220001,-2.042999l2.942993,3.287994z" id="svg_14"/>
   <path fill="#FFFFFF" d="m161.083008,94.032013l-5.246002,0l-5.434998,-7.003998l-3.425018,0l0,7.003998l-4.735992,0l0,-21.314026c3.457001,0 6.64801,0 10.076996,0c5.130005,0 7.856018,3.440002 7.856018,7.188019c-0.029022,2.769989 -0.850006,5.238007 -4.914001,6.695007l5.821991,7.066986l0,0.364014l0.001007,0zm-14.105011,-17.235016l0,6.213989l5.397003,0c2.187012,0 3.127014,-1.645996 3.127014,-2.983978c-0.030029,-1.46402 -0.968018,-3.229004 -3.184021,-3.229004l-5.339996,0l0,-0.001007z" id="svg_15"/>
   <path fill="#FFFFFF" d="m165.334991,94.032013l0,-21.313995l4.700012,0l0,21.313995l-4.700012,0z" id="svg_16"/>
   <path fill="#FFFFFF" d="m185.941986,72.717987c4.034027,0 7.375,1.821014 7.375,5.784027c0,1.764984 -0.788971,3.408997 -2.824982,4.353973c2.704987,0.979004 3.825989,3.719025 3.367004,6.183014c-0.632019,3.444 -3.484009,4.993988 -7.736023,4.993988c-3.427979,0 -7.194977,0 -10.653992,0l0,-21.313995l10.472992,0l0,-0.001007zm-5.828979,8.279022l5.768982,0c1.855011,0 2.763,-0.76001 2.763,-2.006012c0,-1.252991 -0.906982,-2.164001 -2.701996,-2.164001l-5.828979,0l0,4.170013l-0.001007,0zm0,8.893005l5.828979,0c2.122009,0 3.127014,-0.944 3.127014,-2.435028c0,-1.490997 -1.095001,-2.495972 -3.187988,-2.495972c-1.881012,0 -3.884003,0 -5.769012,0l0,4.931l0.001007,0z" id="svg_17"/>
   <path fill="#FFFFFF" d="m214.411011,94.032013l-16.174988,0c0,-7.096985 0,-14.223999 0,-21.313995l15.744995,0l0,4.350983l-11.104004,0l0,4.112l10.468994,0l0,4.175018l-10.468994,0l0,4.292999l11.533997,0l0,4.382996z" id="svg_18"/>
   <path fill="#F7941E" d="m156.731995,63.292999c-6.18399,0 -11.217987,-5.033997 -11.217987,-11.223999c0,-6.187012 5.033997,-11.220001 11.217987,-11.220001c6.194,0 11.226013,5.03299 11.226013,11.220001c0,6.19101 -5.031006,11.223999 -11.226013,11.223999zm0.003998,-17.964996c-3.718994,0 -6.73999,3.026001 -6.73999,6.746002c0,3.716003 3.020996,6.73999 6.73999,6.73999c3.721985,0 6.739014,-3.023987 6.739014,-6.73999c0.001007,-3.720001 -3.016998,-6.746002 -6.739014,-6.746002z" id="svg_19"/>
   <path fill="#F7941E" d="m182.871002,63.292999c-6.187988,0 -11.217987,-5.033997 -11.217987,-11.223999c0,-6.187012 5.029999,-11.220001 11.217987,-11.220001c6.19101,0 11.221985,5.03299 11.221985,11.220001c0,6.19101 -5.030975,11.223999 -11.221985,11.223999zm0.003998,-17.964996c-3.717987,0 -6.747009,3.026001 -6.747009,6.746002c0,3.716003 3.029022,6.73999 6.747009,6.73999c3.718994,0 6.739014,-3.023987 6.739014,-6.73999c0,-3.720001 -3.02002,-6.746002 -6.739014,-6.746002z" id="svg_20"/>
  </g>
 </g>
</svg>