<?xml version="1.0"?>
<svg width="360" height="125" viewbox="0 0 360 125" xmlns="http://www.w3.org/2000/svg" xmlns:svg="http://www.w3.org/2000/svg">
 <g>
  <title>Layer 1</title>
  <rect fill="black" id="svg_1" height="125" width="125" y="0" x="0"/>
  <g id="svg_2">
   <path id="svg_3" d="m171.036011,36.73999c-1.695007,-1.622009 -4.257996,-2.452999 -6.46701,-2.452999c-5.247986,0 -8.677979,3.006008 -8.677979,9.062008c0,3.957981 2.168976,8.905003 8.677979,8.905003c1.932007,0 3.746002,-0.316013 5.876007,-1.938023l0,-4.43298l-6.587982,0l0,-5.145023l11.91098,0l0,12.069004c-2.363968,3.404999 -6.152008,5.14603 -11.238968,5.14603c-10.650024,0 -14.671021,-7.402012 -14.671021,-14.605011c0,-7.79599 4.572998,-14.722992 14.710007,-14.722992c3.745972,0 7.138,1.030001 10.291992,4.274994l-3.824005,3.84l0,-0.000011z" fill="#FFFFFF"/>
   <path id="svg_4" d="m206.606995,57.164001l-6.822998,0l-7.060013,-9.105011l-4.457001,0l0,9.105011l-6.152969,0l0,-27.707001c4.495972,0 8.639984,0 13.095978,0c6.665009,0 10.214005,4.472988 10.214005,9.34201c-0.037994,3.60199 -1.104004,6.806 -6.391022,8.707977l7.57402,9.181l0,0.476013l0,0zm-18.338989,-22.402012l0,8.073002l7.021011,0c2.839996,0 4.061996,-2.13699 4.061996,-3.879002c-0.040009,-1.89999 -1.264008,-4.194 -4.141998,-4.194l-6.94101,0z" fill="#FFFFFF"/>
   <path id="svg_5" d="m292.166016,57.282009l-6.350006,0l-11.516022,-27.825008l6.902008,0l7.769989,20.462009l7.77002,-20.462009l6.901978,0l-11.477966,27.825008z" fill="#FFFFFF"/>
   <path id="svg_6" d="m328.531982,57.164001l-21.021973,0c0,-9.224003 0,-18.48502 0,-27.707001l20.469971,0l0,5.661011l-14.435974,0l0,5.342987l13.609985,0l0,5.422001l-13.609985,0l0,5.580021l14.987976,0l0,5.700989l0,0l0,-0.000008z" fill="#FFFFFF"/>
   <path id="svg_7" d="m167.763,76.886993c-1.540009,-1.623993 -4.220001,-2.333023 -6.390991,-2.333023c-2.718994,0 -4.930023,1.145996 -4.930023,3.047997c0,2.530014 2.407013,3.006004 5.955017,3.323013c5.442993,0.47699 10.610001,2.571007 10.610001,8.984009c0,6.173004 -5.681,8.865997 -11.636978,8.904999c-4.771011,0.040993 -9.741013,-1.821007 -12.067993,-5.697998l3.669022,-3.841003c2.126968,2.731995 5.638992,3.919014 8.438004,3.919014c3.274979,0 5.522995,-1.306 5.522995,-3.285004c0.039993,-2.334976 -1.814987,-3.402008 -5.561996,-3.721008c-5.837021,-0.553986 -11.042999,-2.018997 -10.963989,-8.549011c0.038986,-5.501976 5.245987,-8.431 10.923981,-8.431c4.262009,0 7.456009,0.951019 10.294998,4.275024l-3.862,3.403992l-0.000031,0l-0.000031,0.000015l0,-0.000015l0.000015,0z"/>
   <path id="svg_8" d="m201.640015,94.539001c-2.841003,2.810997 -6.51001,4.076996 -10.610031,4.076996c-10.530991,0 -14.710999,-6.80899 -14.751968,-14.366997c-0.037979,-7.164001 4.615997,-14.684998 14.751968,-14.684998c3.785004,0 7.297012,1.46701 10.137039,4.275986l-3.86702,3.840004c-1.654984,-1.625 -4.061996,-2.298004 -6.27002,-2.298004c-6.27095,0 -8.717972,4.869019 -8.677979,8.907013c0.039978,4.036011 2.209991,8.627991 8.677979,8.627991c2.208023,0 5.126999,-0.98999 6.784012,-2.651993l3.826019,4.273987l0,-0.000015l0,0.000015l0,0.000023l0,-0.000008z"/>
   <path id="svg_9" d="m230.427002,97.903023l-6.821991,0l-7.062012,-9.104004l-4.457001,0l0,9.104004l-6.151001,0l0,-27.705994c4.496002,0 8.638,0 13.095001,0c6.666016,0 10.214996,4.475014 10.214996,9.34201c-0.039001,3.60199 -1.10498,6.807983 -6.389969,8.707977l7.571991,9.181l0,0.475014l-0.000015,-0.000008zm-18.341003,-22.402023l0,8.075012l7.022003,0c2.839996,0 4.062012,-2.136024 4.062012,-3.878998c-0.041031,-1.899025 -1.262024,-4.196014 -4.141022,-4.196014l-6.942993,0z"/>
   <path id="svg_10" d="m235.946014,97.903023l0,-27.705994l6.110992,0l0,27.705994l-6.110992,0z"/>
   <path id="svg_11" d="m262.729004,70.196991c5.246002,0 9.584991,2.375 9.584991,7.520996c0,2.294014 -1.026001,4.433014 -3.669006,5.659004c3.511017,1.266998 4.969025,4.827995 4.378021,8.034996c-0.826996,4.471024 -4.533997,6.48999 -10.059021,6.48999c-4.455994,0 -9.343994,0 -13.843002,0l0,-27.705986l13.608017,0l0,0.001007l0,-0.000008zm-7.57402,10.769012l7.49501,0c2.407013,0 3.58902,-0.991005 3.58902,-2.613014c0,-1.622986 -1.183014,-2.809998 -3.511017,-2.809998l-7.573013,0l0,5.422997l0,0.000023l0,-0.000008zm0,11.553986l7.573013,0c2.763,0 4.063995,-1.226006 4.063995,-3.164001c0,-1.938995 -1.42099,-3.243988 -4.143005,-3.243988c-2.444977,0 -5.049988,0 -7.49501,0l0,6.40799l0.001007,0z"/>
   <path id="svg_12" d="m299.72699,97.903023l-21.020996,0c0,-9.222992 0,-18.483002 0,-27.705994l20.468994,0l0,5.660004l-14.434998,0l0,5.343987l13.606995,0l0,5.42099l-13.606995,0l0,5.582001l14.987,0l0,5.699013l0,0z"/>
   <path id="svg_13" d="m224.772003,57.95401c-8.042999,0 -14.582001,-6.54401 -14.582001,-14.585999c0,-8.043003 6.539001,-14.583012 14.582001,-14.583012c8.041992,0 14.583984,6.541019 14.583984,14.583012c0,8.040989 -6.541992,14.585999 -14.583984,14.585999zm0.002991,-23.348019c-4.833008,0 -8.761993,3.929989 -8.761993,8.765007c0,4.82999 3.929993,8.758003 8.761993,8.758003c4.829987,0 8.76001,-3.92902 8.76001,-8.758003c0,-4.833008 -3.931,-8.765007 -8.76001,-8.765007z" fill="#FFFFFF"/>
   <path id="svg_14" d="m258.739014,57.95401c-8.041992,0 -14.582001,-6.54401 -14.582001,-14.585999c0,-8.043003 6.540009,-14.583012 14.582001,-14.583012c8.044006,0 14.583008,6.541019 14.583008,14.583012c-0.000031,8.040989 -6.540009,14.585999 -14.583008,14.585999zm0.003998,-23.348019c-4.833008,0 -8.761993,3.929989 -8.761993,8.765007c0,4.82999 3.929993,8.758003 8.761993,8.758003c4.830994,0 8.759003,-3.92902 8.759003,-8.758003c0,-4.833008 -3.929016,-8.765007 -8.759003,-8.765007z" fill="#FFFFFF"/>
  </g>
  <g id="svg_15">
   <path id="svg_16" d="m60.467991,65.741997c-12.28299,0 -22.276001,-9.997005 -22.276001,-22.283997c0,-12.274019 9.994019,-22.271999 22.276001,-22.271999c12.278019,0 22.269009,9.99799 22.269009,22.271999c-0.001007,12.286991 -9.991997,22.283997 -22.269009,22.283997zm0,-37.077995c-8.159,0 -14.794979,6.644012 -14.794979,14.798004c0,8.162983 6.635986,14.791985 14.794979,14.791985c8.157009,0 14.803013,-6.629002 14.803013,-14.791985c0,-8.153992 -6.646004,-14.798004 -14.803013,-14.798004z" fill="#FFFFFF"/>
   <path id="svg_17" d="m60.467991,51.90799c-4.665993,0 -8.445011,-3.786991 -8.445011,-8.446011c0,-4.653988 3.779018,-8.440979 8.445011,-8.440979c4.64999,0 8.443996,3.786991 8.443996,8.440979c0.001015,4.659031 -3.792999,8.446011 -8.443996,8.446011z" fill="#F7941E"/>
   <g id="svg_18">
    <path id="svg_19" d="m61.13699,103.571991c-5.79599,0 -24.745998,-1.138 -24.745998,-15.771004c0,-0.921997 0.125,-1.834976 0.390987,-2.791977l0.09399,-0.292999l9.219021,0l-0.151001,0.517967c-0.197998,0.701019 -0.310997,1.417999 -0.310997,2.137024c0,6.332001 7.898987,8.583977 15.291988,8.583977c3.610992,0 15.394989,-0.626007 15.394989,-8.687988c0,-4.349014 -3.515991,-6.419014 -11.064972,-6.52301c-6.873016,0 -11.538998,-0.159004 -15.027008,-0.983002c-3.431,-0.807007 -4.132019,-1.126976 -6.926998,-2.752991c-3.636021,-2.38501 -5.394012,-5.327995 -5.394012,-8.998016c0,-3.687988 1.854,-6.860981 5.668003,-9.716003c0.72501,-0.502987 1.518009,-0.750977 2.378017,-0.750977c1.92099,0 3.824982,1.311977 4.161991,2.865997c0.22501,1.028992 0.48801,0.685001 -0.84,1.881992c-0.855011,0.766983 -3.640011,2.702 -3.640011,5.167995c0,5.662033 10.788021,5.662033 17.23502,5.662033c16.113979,0 22.694004,4.064003 22.694004,14.03598c-0.001984,14.282013 -15.29599,16.415016 -24.427002,16.415016l-0.000011,0.000023l0,-0.000023l0,-0.000008l0,-0.000008z" fill="#FFFFFF"/>
   </g>
   <g id="svg_20">
    <path id="svg_21" d="m79.503998,33.084991c-0.225975,0 -0.422997,-0.101013 -4.705986,-2.935001c-2.208023,-1.463989 -4.708023,-3.121 -5.758003,-3.72501l-1.31601,-0.751011l20.404999,0l0,5.715l-8.223999,1.371002c-0.006989,0.015007 -0.006989,0.038017 -0.014977,0.05801l-0.104004,0.262997l-0.282005,0.004002l-0.000023,0.000011l0.000008,0z" fill="#FFFFFF"/>
   </g>
  </g>
 </g>
</svg>