<svg xmlns="http://www.w3.org/2000/svg" version="1.1" xmlns:xlink="http://www.w3.org/1999/xlink" xml:space="preserve" color="black" width="6.94in" height="1.28in" viewBox="0 0 500 92">
<title>abc2svg - 6.</title><style type="text/css">
.fill {fill: currentColor}
.stroke {stroke: currentColor; fill: none; stroke-width: .7}
	rect.abcr {fill:#a08000; fill-opacity:0}
	rect.abcr:hover {fill-opacity:0.3}

.f1 {font-family:serif; font-style:italic; font-size:14px}
.f2 {font-family:calibri; font-size:16px}
</style><defs>
<path id="pclef" class="stroke" style="stroke-width:1.4" d="m4 10h5.4v-20h-5.4v20"/>
<ellipse id="hd" rx="4.1" ry="2.9" transform="rotate(-20)" class="fill"/>
<path id="Xhead" d="m-3 -3l6 6m0 -6l-6 6" class="stroke" style="stroke-width:1.2"/>
<path id="hl" class="stroke" d="m-6 0h12"/>
<circle id="opend" class="stroke" cx="0" cy="-3" r="2.5"/>
</defs><rect width="100%" height="100%" fill="white"/><g transform="scale(0.75)"><g transform="translate(0,75.30)">
<g class="e_963_2_">
<text class="f2" x="42.00" y="-7.86">Kick</text>
</g>
<g class="e_804_2_">
<text class="f2" x="87.10" y="-22.36">Snare</text>
</g>
<g class="e_815_3_">
<text class="f2" x="137.22" y="-28.36">Cross</text>
</g>
<g class="e_827_2_">
<text class="f2" x="187.33" y="-28.36">Tom 1</text>
</g>
<g class="e_838_2_">
<text class="f2" x="240.53" y="-25.36">Tom 2</text>
</g>
<g class="e_853_2_">
<text class="f2" x="293.73" y="-32.36">Floor Tom</text>
</g>
<g class="e_865_3_">
<text class="f2" x="376.26" y="-32.36">Hi-Hat</text>
</g>
<g class="e_885_3_">
<text class="f2" x="435.96" y="-42.36">Open HH</text>
</g>
<g class="e_896_4_">
<text class="f2" x="510.64" y="-35.36">Ride</text>
</g>
<g class="e_980_4_">
<text class="f2" x="560.76" y="-39.36">HH foot</text>
</g>
<g class="e_912_4_">
<text class="f2" x="618.58" y="-39.36">Crash</text>
</g>
</g>
<g class="e_757_2_">
<path class="stroke" d="m666.67 96.64v-24.00"/>
<path class="stroke" d="m663.67 96.64v-24.00"/>
</g>
<path class="stroke" d="m0.00 96.64 h666.67m-666.67 -6h666.67m-666.67 -6h666.67m-666.67 -6h666.67m-666.67 -6h666.67"/>
<g class="e_727_13_">
<use x="4.00" y="84.64" xlink:href="#pclef"/>
</g>
<g class="e_9_5_">
<g font-family="serif" font-size="16" font-weight="bold" transform="translate(30.50,96.64) scale(1.2,1)">
	<text y="-12" text-anchor="middle">4</text>
	<text text-anchor="middle">4</text>
</g>
</g>
<g class="e_753_3_">
</g>
<g class="e_793_2_">
</g>
<g class="e_804_2_">
<path class="stroke" d="m98.60 81.64v-21.00"/>
<use x="95.10" y="81.64" xlink:href="#hd"/>
</g>
<g class="e_815_3_">
<path class="stroke" d="m148.72 81.64v-21.00"/>
<use x="145.22" y="81.64" xlink:href="#Xhead"/>
</g>
<g class="e_827_2_">
<path class="stroke" d="m198.83 75.64v-21.00"/>
<use x="195.33" y="75.64" xlink:href="#hd"/>
</g>
<g class="e_838_2_">
<path class="stroke" d="m252.03 78.64v-21.00"/>
<use x="248.53" y="78.64" xlink:href="#hd"/>
</g>
<g class="e_853_2_">
<path class="stroke" d="m305.23 84.64v-21.00"/>
<use x="301.73" y="84.64" xlink:href="#hd"/>
</g>
<g class="e_865_3_">
<path class="stroke" d="m387.76 69.64v-19.00"/>
<use x="384.26" y="69.64" xlink:href="#Xhead"/>
</g>
<g class="e_885_3_">
<path class="stroke" d="m447.46 69.64v-19.00"/>
<use x="443.96" y="69.64" xlink:href="#Xhead"/>
</g>
<g class="e_896_4_">
<use x="518.64" y="66.64" xlink:href="#hl"/>
<path class="stroke" d="m522.14 66.64v-19.00"/>
<use x="518.64" y="66.64" xlink:href="#Xhead"/>
</g>
<g class="e_901_2_">
</g>
<g class="e_912_4_">
<use x="626.58" y="66.64" xlink:href="#hl"/>
<use x="626.58" y="60.64" xlink:href="#hl"/>
<path class="stroke" d="m630.08 60.64v-17.00"/>
<use x="626.58" y="60.64" xlink:href="#Xhead"/>
</g>
<g class="e_963_2_">
<path class="stroke" d="m46.50 93.64v21.00"/>
<use x="50.00" y="93.64" xlink:href="#hd"/>
</g>
<g class="e_966_3_">
</g>
<g class="e_980_4_">
<path class="stroke" d="m565.26 99.64v19.00"/>
<use x="568.76" y="99.64" xlink:href="#Xhead"/>
</g>
<use x="443.96" y="46.14" xlink:href="#opend"/>
</g></svg>